<!-- Generated by IcoMoon.io -->
<svg version="1.1" xmlns="http://www.w3.org/2000/svg" width="32" height="32" viewBox="0 0 32 32">
<title>chat-black</title>
<path fill="#000" d="M16 0.048c-7.707 0-13.958 6.251-13.958 13.958 0 3.82 1.542 7.275 4.031 9.798l-0.043 8.147 6.683-4.421c1.060 0.261 2.149 0.433 3.287 0.433 7.707 0 13.958-6.251 13.958-13.958s-6.251-13.958-13.958-13.958z"></path>
<path fill="#ffd00f" d="M15.060 16.337c0 0.088 0.072 0.16 0.16 0.16h0.24v0.247c0 0.044 0.036 0.080 0.080 0.080 0.022 0 0.043-0.009 0.057-0.024l0.303-0.303h0.88c0.088 0 0.16-0.072 0.16-0.16v-1c0-0.088-0.072-0.16-0.16-0.16h-1.56c-0.088 0-0.16 0.072-0.16 0.16v1zM15.54 15.877c0-0.055 0.045-0.1 0.1-0.1s0.1 0.045 0.1 0.1-0.045 0.1-0.1 0.1-0.1-0.045-0.1-0.1zM15.9 15.877c0-0.055 0.045-0.1 0.1-0.1s0.1 0.045 0.1 0.1-0.045 0.1-0.1 0.1-0.1-0.045-0.1-0.1zM16.26 15.877c0-0.055 0.045-0.1 0.1-0.1s0.1 0.045 0.1 0.1-0.045 0.1-0.1 0.1-0.1-0.045-0.1-0.1z"></path>
<path fill="#000" d="M13.267 13.619c0-0.746-0.599-1.346-1.346-1.346s-1.346 0.599-1.346 1.346 0.599 1.346 1.346 1.346 1.346-0.599 1.346-1.346zM17.304 13.619c0-0.746-0.599-1.346-1.346-1.346s-1.346 0.599-1.346 1.346 0.599 1.346 1.346 1.346 1.346-0.599 1.346-1.346zM21.341 13.619c0-0.746-0.599-1.346-1.346-1.346s-1.346 0.599-1.346 1.346 0.599 1.346 1.346 1.346 1.346-0.599 1.346-1.346zM25.377 13.619c0 3.721-4.216 6.728-9.419 6.728-0.768 0-1.514-0.063-2.218-0.189-1.198 1.198-2.764 2.018-4.573 2.407-0.284 0.052-0.589 0.105-0.904 0.137-0.168 0.021-0.326-0.095-0.368-0.252v0c-0.042-0.168 0.084-0.273 0.211-0.389 0.662-0.62 1.451-1.114 1.724-3.332-2.008-1.23-3.291-3.059-3.291-5.109 0-3.721 4.216-6.728 9.419-6.728s9.419 3.007 9.419 6.728h0.001z"></path>
<path fill="#fff" d="M13.316 13.655c0 0.748-0.607 1.355-1.355 1.355s-1.355-0.607-1.355-1.355c0-0.748 0.607-1.355 1.355-1.355s1.355 0.607 1.355 1.355z"></path>
<path fill="#fff" d="M17.362 13.672c0 0.748-0.607 1.355-1.355 1.355s-1.355-0.607-1.355-1.355c0-0.748 0.607-1.355 1.355-1.355s1.355 0.607 1.355 1.355z"></path>
<path fill="#fff" d="M21.379 13.665c0 0.748-0.607 1.355-1.355 1.355s-1.355-0.607-1.355-1.355c0-0.748 0.607-1.355 1.355-1.355s1.355 0.607 1.355 1.355z"></path>
</svg>
