<!-- Generated by IcoMoon.io -->
<svg version="1.1" xmlns="http://www.w3.org/2000/svg" width="32" height="32" viewBox="0 0 32 32">
<title>envelope-black</title>
<path d="M27.439 4h-24.276c-1.669 0-3.019 1.35-3.019 3l-0.015 18c0 1.65 1.366 3 3.034 3h24.276c1.669 0 3.035-1.35 3.035-3v-18c0-1.65-1.366-3-3.035-3zM26.832 10.375l-10.727 6.63c-0.486 0.3-1.123 0.3-1.608 0l-10.727-6.63c-0.152-0.084-0.285-0.198-0.392-0.335s-0.183-0.294-0.227-0.461c-0.043-0.167-0.052-0.341-0.025-0.512s0.088-0.334 0.181-0.48c0.092-0.146 0.214-0.272 0.357-0.371s0.305-0.167 0.476-0.202c0.171-0.035 0.347-0.035 0.518-0.001s0.333 0.103 0.476 0.201l10.166 6.285 10.166-6.285c0.143-0.098 0.305-0.167 0.476-0.201s0.347-0.034 0.518 0.001 0.333 0.104 0.476 0.202c0.143 0.098 0.265 0.225 0.357 0.371s0.154 0.31 0.181 0.48c0.027 0.17 0.018 0.345-0.025 0.512s-0.12 0.324-0.227 0.461c-0.106 0.137-0.24 0.251-0.392 0.335z"></path>
</svg>
