<!-- Generated by IcoMoon.io -->
<svg version="1.1" xmlns="http://www.w3.org/2000/svg" width="32" height="32" viewBox="0 0 32 32">
<title>tel-black</title>
<path d="M29.926 24.345l-6.925-6.225c-0.327-0.294-0.757-0.451-1.2-0.438s-0.862 0.196-1.17 0.51l-4.077 4.145c-0.981-0.185-2.954-0.793-4.985-2.796-2.031-2.009-2.646-3.965-2.828-4.928l4.189-4.032c0.318-0.305 0.503-0.719 0.516-1.157s-0.145-0.863-0.443-1.186l-6.295-6.845c-0.298-0.324-0.712-0.521-1.155-0.549s-0.878 0.117-1.215 0.402l-3.697 3.134c-0.295 0.292-0.47 0.681-0.494 1.093-0.026 0.421-0.513 10.395 7.31 18.132 6.824 6.745 15.373 7.239 17.727 7.239 0.344 0 0.555-0.010 0.612-0.013 0.416-0.023 0.81-0.198 1.104-0.49l3.169-3.656c0.29-0.332 0.437-0.762 0.41-1.2s-0.226-0.847-0.554-1.141z"></path>
</svg>
