<svg width="19" height="15" viewBox="0 0 19 15" fill="none" xmlns="http://www.w3.org/2000/svg">
<path d="M16.875 0H1.875C0.84375 0 0.00937499 0.84375 0.00937499 1.875L0 13.125C0 14.1562 0.84375 15 1.875 15H16.875C17.9062 15 18.75 14.1562 18.75 13.125V1.875C18.75 0.84375 17.9062 0 16.875 0ZM16.5 3.98438L9.87187 8.12813C9.57187 8.31563 9.17813 8.31563 8.87813 8.12813L2.25 3.98438C2.15599 3.9316 2.07367 3.86031 2.00802 3.7748C1.94237 3.68929 1.89475 3.59135 1.86804 3.48691C1.84133 3.38247 1.8361 3.27369 1.85265 3.16716C1.8692 3.06064 1.90719 2.95858 1.96433 2.86716C2.02146 2.77574 2.09655 2.69686 2.18506 2.63531C2.27356 2.57375 2.37363 2.53079 2.47921 2.50903C2.5848 2.48727 2.6937 2.48716 2.79933 2.5087C2.90496 2.53025 3.00512 2.573 3.09375 2.63437L9.375 6.5625L15.6563 2.63437C15.7449 2.573 15.845 2.53025 15.9507 2.5087C16.0563 2.48716 16.1652 2.48727 16.2708 2.50903C16.3764 2.53079 16.4764 2.57375 16.5649 2.63531C16.6534 2.69686 16.7285 2.77574 16.7857 2.86716C16.8428 2.95858 16.8808 3.06064 16.8974 3.16716C16.9139 3.27369 16.9087 3.38247 16.882 3.48691C16.8553 3.59135 16.8076 3.68929 16.742 3.7748C16.6763 3.86031 16.594 3.9316 16.5 3.98438Z" fill="#FFD012"/>
</svg>
