<svg width="800" height="600" xmlns="http://www.w3.org/2000/svg">
 <g id="Layer_1">
  <title>Layer 1</title>
  <ellipse stroke="null" ry="299.50005" rx="298.50004" id="svg_1" cy="299.99999" cx="399.99999" fill="#ffcf11"/>
  <g stroke="null">
   <!--! Font Awesome Pro 6.4.0 by @fontawesome - https://fontawesome.com License - https://fontawesome.com/license (Commercial License) Copyright 2023 Fonticons, Inc. -->
   <path stroke="null" d="m556.90991,219.5398c0.25075,3.50899 0.25075,7.01875 0.25075,10.52773c0,107.02874 -81.46205,230.35097 -230.35097,230.35097c-45.8699,0 -88.48079,-13.28524 -124.32446,-36.3444c6.51724,0.75148 12.78296,1.00224 19.55095,1.00224c37.84815,0 72.68958,-12.78296 100.51227,-34.58991c-35.59292,-0.75226 -65.42085,-24.06295 -75.69783,-56.14688c5.0135,0.75148 10.02623,1.25299 15.29048,1.25299c7.26873,0 14.53822,-1.00301 21.30545,-2.75673c-37.09666,-7.52025 -64.92012,-40.10491 -64.92012,-79.45757l0,-1.00224c10.77771,6.01574 23.31146,9.77548 36.59516,10.27621c-21.80695,-14.53822 -36.09365,-39.35266 -36.09365,-67.4261c0,-15.03896 4.00972,-28.82493 11.02847,-40.8564c39.85416,49.12814 99.76078,81.2113 166.93536,84.72105c-1.25299,-6.01574 -2.00525,-12.28146 -2.00525,-18.54794c0,-44.61691 36.09442,-80.96131 80.96131,-80.96131c23.31069,0 44.36539,9.77548 59.15436,25.56669c18.29719,-3.50899 35.8429,-10.27698 51.38413,-19.55095c-6.01651,18.79947 -18.79947,34.59068 -35.59292,44.61614c16.29272,-1.75372 32.08393,-6.26649 46.62138,-12.53221c-11.02692,16.04119 -24.81366,30.3279 -40.60488,41.85864z"/>
  </g>
 </g>

</svg>