<!-- Generated by IcoMoon.io -->
<svg version="1.1" xmlns="http://www.w3.org/2000/svg" width="182" height="32" viewBox="0 0 182 32">
<title>1</title>
<path d="M0 16v16h181.76v-32h-181.76v16zM179.297 3.175c0.486 0.25 0.957 0.754 1.045 1.12s0.121 5.69 0.072 11.831l-0.089 11.166-1.801 1.349h-85.037c-46.77 0-85.422-0.108-85.892-0.241-1.906-0.536-1.856-0.194-1.856-12.719 0-12.531-0.041-12.249 1.856-12.668 0.47-0.104 0.998-0.237 1.173-0.297s38.417-0.083 84.981-0.052c72.47 0.048 84.789 0.122 85.547 0.511zM39.541 4.946c-1.315 0.424-3.217 1.006-4.225 1.295l-1.834 0.525 0.001 6.777 0.001 6.777 6.935 3.281c3.814 1.804 7.157 3.281 7.43 3.28s1.107-0.452 1.854-1.004c1.014-0.748 1.451-0.911 1.721-0.64 0.199 0.2 0.703 0.363 1.119 0.363 0.652 0 0.744-0.134 0.657-0.966-0.077-0.732 0.107-1.14 0.756-1.68 0.684-0.569 0.878-1.038 0.959-2.314 0.088-1.388 0.198-1.614 0.833-1.705 0.613-0.088 0.715-0.27 0.633-1.12-0.075-0.772-0.27-1.040-0.816-1.118-0.792-0.113-0.932-0.674-0.321-1.287 0.315-0.316 0.307-0.452-0.041-0.668-0.513-0.318-0.202-0.982 0.461-0.982 0.277 0 0.46-0.317 0.46-0.8 0-0.605-0.175-0.809-0.718-0.838-0.555-0.029-0.501-0.084 0.239-0.243 0.841-0.18 0.957-0.34 0.957-1.322 0-0.98-0.107-1.129-0.877-1.218-0.763-0.088-0.877-0.241-0.877-1.181 0-1.258-0.566-1.766-1.12-1.007-0.481 0.66-1.112 0.688-1.112 0.049 0-0.403-0.689-0.48-4.286-0.48h-4.285l-0.099-1.2c-0.089-1.079-0.196-1.207-1.056-1.272-0.526-0.040-2.033 0.274-3.348 0.698zM60.906 7.2c0 0.264 0.144 0.48 0.319 0.48s0.319-0.216 0.319-0.48-0.144-0.48-0.319-0.48c-0.175 0-0.319 0.216-0.319 0.48zM67.283 7.648c0 0.58 0.165 0.992 0.399 0.991 0.297-0 0.399 0.997 0.399 3.92v3.92l2.072 0.201v-1.62c0-1.487 0.061-1.62 0.749-1.62 1.258 0 2.689-0.647 3.215-1.453 0.767-1.174 0.641-3.147-0.27-4.209-0.721-0.841-0.952-0.905-3.667-1.010l-2.897-0.112v0.992zM82.27 7.68c0 0.559 0.168 0.96 0.403 0.96 0.3 0 0.394 0.87 0.372 3.44-0.017 1.892 0.095 3.692 0.246 4 0.184 0.372 0.647 0.56 1.382 0.56 1.015 0 1.105-0.078 1.105-0.96 0-0.528-0.143-0.96-0.319-0.96-0.194 0-0.319-1.419-0.319-3.616 0-4.003-0.158-4.384-1.818-4.384-0.957 0-1.053 0.087-1.053 0.96zM106.186 7.68c0 0.64 0.159 0.96 0.478 0.96 0.269 0 0.479 0.286 0.479 0.651 0 0.545-0.101 0.597-0.617 0.32-1.024-0.55-2.15-0.377-3.174 0.488-1.161 0.98-1.499 2.411-1.005 4.251 0.459 1.711 1.495 2.43 3.12 2.166 0.659-0.107 1.341-0.189 1.517-0.182s0.893 0.043 1.595 0.079c1.105 0.058 1.289-0.030 1.377-0.655 0.061-0.433-0.098-0.799-0.399-0.914-0.413-0.159-0.5-0.815-0.5-3.775 0-3.966-0.161-4.35-1.818-4.35-0.957 0-1.052 0.087-1.052 0.96zM115.327 6.933c-0.362 0.363-0.234 1.341 0.209 1.611 0.233 0.141 0.842 1.984 1.356 4.096l0.933 3.84 1.153 0.097c1.115 0.094 1.167 0.050 1.522-1.28 0.202-0.757 0.563-2.097 0.8-2.977l0.433-1.6 0.377 1.44c1.204 4.599 1.057 4.32 2.256 4.32h1.098l1.028-3.835c0.566-2.109 1.178-3.885 1.363-3.947s0.334-0.532 0.334-1.045c0-0.819-0.115-0.933-0.934-0.933-0.975 0-1.935 0.707-1.935 1.424 0 0.23-0.24 1.479-0.532 2.777l-0.532 2.359-0.824-3.2c-0.758-2.947-0.888-3.208-1.644-3.296-0.869-0.101-1.052 0.311-2.243 5.056l-0.362 1.44-0.722-2.998c-0.397-1.649-0.918-3.123-1.157-3.275-0.519-0.33-1.678-0.373-1.976-0.073zM140.944 7.68c0 0.64 0.159 0.96 0.478 0.96 0.399 0 0.478 0.658 0.478 4v4h0.957c0.94 0 0.957-0.029 0.967-1.68 0.011-1.641 0.024-1.664 0.558-0.995 0.301 0.377 0.792 1.133 1.091 1.68 0.424 0.777 0.757 0.995 1.515 0.995 0.867 0 0.972-0.103 0.972-0.96 0-0.554-0.169-0.961-0.399-0.962-0.219-0.001-0.651-0.447-0.959-0.99-0.556-0.979-0.552-1.001 0.403-2.421 0.53-0.788 0.889-1.554 0.798-1.701-0.157-0.255-1.674-0.229-1.871 0.032-0.051 0.068-0.415 0.591-0.808 1.163s-0.85 1.040-1.013 1.040-0.297-0.979-0.297-2.176c0-2.467-0.295-2.944-1.818-2.944-0.957 0-1.052 0.087-1.052 0.96zM55.485 8c0 0.811 0.124 0.96 0.797 0.96s0.797-0.149 0.797-0.96c0-0.811-0.124-0.96-0.797-0.96s-0.797 0.149-0.797 0.96zM50.702 8.96c0 0.176-0.152 0.32-0.338 0.32s-0.249-0.144-0.141-0.32c0.108-0.176 0.26-0.32 0.338-0.32s0.141 0.144 0.141 0.32zM57.717 9.6c0 0.811 0.124 0.96 0.797 0.96s0.797-0.149 0.797-0.96c0-0.811-0.124-0.96-0.797-0.96s-0.797 0.149-0.797 0.96zM72.321 9.024c0.211 0.211 0.383 0.686 0.383 1.056 0 0.923-0.596 1.44-1.658 1.44-0.845 0-0.893-0.076-0.893-1.44s0.047-1.44 0.893-1.44c0.491 0 1.065 0.173 1.276 0.384zM45.918 9.6c0 0.176-0.144 0.32-0.319 0.32s-0.319-0.144-0.319-0.32c0-0.176 0.144-0.32 0.319-0.32s0.319 0.144 0.319 0.32zM60.587 9.92c0 0.427 0.213 0.64 0.638 0.64s0.638-0.213 0.638-0.64-0.213-0.64-0.638-0.64c-0.425 0-0.638 0.213-0.638 0.64zM76.983 9.59c-1.080 0.438-2.365 2.205-2.365 3.25 0 3.041 3.317 4.792 5.987 3.158 2.372-1.452 2.166-4.992-0.361-6.196-1.192-0.568-2.221-0.635-3.26-0.213zM87.39 9.902c-0.382 0.383-0.648 0.94-0.592 1.237 0.141 0.743 1.487 0.883 1.98 0.207 0.466-0.639 1.784-0.376 1.784 0.355 0 0.319-0.376 0.459-1.233 0.459-2.456 0-3.815 2.294-2.275 3.84 0.707 0.71 2.517 0.866 3.112 0.269 0.279-0.28 0.484-0.275 0.842 0.023 0.771 0.642 2.248 0.308 2.367-0.534 0.061-0.433-0.098-0.799-0.398-0.914-0.375-0.145-0.501-0.657-0.501-2.043 0-2.478-0.607-3.231-2.773-3.44-1.359-0.131-1.727-0.045-2.311 0.541zM93.818 9.524c-0.568 0.19-0.487 1.676 0.092 1.676 0.388 0 0.479 0.518 0.479 2.741v2.741l0.877-0.101c0.839-0.097 0.884-0.193 1.036-2.213 0.175-2.309 0.698-3.251 1.726-3.103 0.591 0.085 0.676 0.345 0.762 2.322 0.052 1.225 0.25 2.413 0.438 2.64s0.826 0.413 1.418 0.413c0.984 0 1.077-0.083 1.077-0.96 0-0.528-0.124-0.96-0.275-0.96s-0.353-0.966-0.447-2.148c-0.136-1.702-0.318-2.267-0.876-2.72-0.847-0.688-2.196-0.74-3.043-0.119-0.34 0.25-0.762 0.341-0.938 0.203-0.417-0.327-1.832-0.578-2.325-0.412zM129.564 9.885c-1.295 0.816-1.694 1.581-1.694 3.245 0 1.089 0.198 1.532 1.084 2.421 0.913 0.916 1.311 1.088 2.526 1.088 2.553 0 4.477-2.349 3.745-4.574-0.799-2.429-3.572-3.498-5.661-2.18zM136.065 9.482c-0.335 0.337-0.269 1.718 0.083 1.718 0.168 0 0.348 1.188 0.399 2.64l0.092 2.64h0.957c0.955 0 0.957-0.004 1.116-2.207 0.16-2.213 0.3-2.454 1.674-2.88 0.613-0.19 0.777-1.62 0.225-1.962-0.183-0.114-0.703 0.037-1.156 0.335-0.498 0.328-0.902 0.418-1.023 0.228-0.259-0.409-2.077-0.802-2.367-0.512zM53.093 11.040c0 0.652-0.156 0.8-0.843 0.8-0.699 0-0.835-0.137-0.797-0.8 0.036-0.628 0.218-0.8 0.843-0.8 0.638-0 0.797 0.16 0.797 0.8zM50.323 11.116c-0.16 0.834-1.216 0.927-1.216 0.107 0-0.458 0.205-0.663 0.661-0.663s0.628 0.172 0.555 0.556zM62.5 11.333c0 0.279 0.227 0.507 0.505 0.507s0.448-0.171 0.379-0.38c-0.197-0.594-0.884-0.692-0.884-0.127zM79.907 11.998c0.637 0.976 0.388 2.242-0.54 2.74-1.905 1.023-3.495-1.342-2.11-3.138 0.545-0.707 2.079-0.476 2.65 0.398zM106.813 11.819c0.491 0.921 0.402 1.781-0.271 2.614-0.529 0.657-0.698 0.699-1.435 0.362-0.714-0.326-0.835-0.582-0.835-1.775 0-0.766 0.096-1.49 0.213-1.607 0.465-0.467 2.004-0.199 2.327 0.405zM132.908 11.584c0.211 0.211 0.383 0.856 0.383 1.433 0 0.778-0.216 1.19-0.834 1.597-0.748 0.491-0.922 0.499-1.674 0.077-0.939-0.526-1.246-1.791-0.689-2.835 0.397-0.745 2.172-0.916 2.815-0.272zM58.413 12.4c0.080 0.698 0.265 0.88 0.898 0.88s0.818-0.182 0.898-0.88c0.091-0.794 0.004-0.88-0.898-0.88s-0.989 0.086-0.898 0.88zM110.823 11.774c-0.095 0.095-0.173 0.509-0.173 0.92 0 0.706 0.113 0.747 2.094 0.747h2.094l-0.101-0.88c-0.097-0.84-0.184-0.882-1.921-0.92-1.002-0.022-1.898 0.038-1.993 0.133zM44.005 12.32c0 0.264-0.215 0.48-0.478 0.48s-0.478-0.216-0.478-0.48 0.215-0.48 0.478-0.48c0.263 0 0.478 0.216 0.478 0.48zM56.821 12.504c0.063 0.189 0.251 0.344 0.417 0.344s0.354-0.155 0.417-0.344c0.063-0.189-0.125-0.344-0.417-0.344s-0.48 0.155-0.417 0.344zM40.816 12.96c0 0.264-0.215 0.48-0.478 0.48-0.498 0-0.633-0.379-0.266-0.747s0.744-0.233 0.744 0.267zM61.109 12.702c-0.359 0.36-0.218 0.738 0.275 0.738 0.263 0 0.478-0.135 0.478-0.301 0-0.404-0.498-0.692-0.753-0.437zM53.89 13.92c0 0.587-0.17 0.8-0.638 0.8s-0.638-0.213-0.638-0.8c0-0.587 0.17-0.8 0.638-0.8s0.638 0.213 0.638 0.8zM49.745 14.080c0 0.356-0.213 0.64-0.478 0.64s-0.478-0.284-0.478-0.64 0.213-0.64 0.478-0.64c0.266 0 0.478 0.284 0.478 0.64zM56.35 13.638c-0.497 0.5-0.223 1.783 0.417 1.951 0.504 0.132 0.565 0.265 0.283 0.606-0.465 0.562-0.144 1.405 0.533 1.405 0.4 0 0.492-0.225 0.386-0.948-0.090-0.616 0.016-1.007 0.304-1.118 0.268-0.103 0.403-0.518 0.342-1.052-0.083-0.721-0.278-0.899-1.069-0.977-0.533-0.052-1.070 0.008-1.196 0.133zM90.561 13.856c0 0.588-0.666 1.184-1.32 1.184-0.758 0-1.049-0.569-0.582-1.134 0.479-0.578 1.902-0.616 1.902-0.050zM59.524 14.293c-0.439 0.44-0.189 1.067 0.425 1.067 0.425 0 0.638-0.213 0.638-0.64 0-0.617-0.624-0.867-1.063-0.427zM47.513 15.040c0 0.176-0.144 0.32-0.319 0.32s-0.319-0.144-0.319-0.32 0.144-0.32 0.319-0.32c0.175 0 0.319 0.144 0.319 0.32zM51.499 15.040c0.108 0.176 0.045 0.32-0.141 0.32s-0.338-0.144-0.338-0.32c0-0.176 0.063-0.32 0.141-0.32s0.229 0.144 0.338 0.32zM62.181 15.2c0 0.264 0.144 0.48 0.319 0.48s0.319-0.216 0.319-0.48c0-0.264-0.144-0.48-0.319-0.48s-0.319 0.216-0.319 0.48zM60.906 16.983c0 0.82 1.056 0.727 1.216-0.107 0.074-0.384-0.098-0.556-0.555-0.556s-0.661 0.205-0.661 0.663zM49.107 16.96c0 0.176-0.144 0.32-0.319 0.32s-0.319-0.144-0.319-0.32 0.144-0.32 0.319-0.32c0.175 0 0.319 0.144 0.319 0.32zM52.296 17.44c0 0.64-0.159 0.8-0.797 0.8s-0.797-0.16-0.797-0.8c0-0.64 0.159-0.8 0.797-0.8s0.797 0.16 0.797 0.8zM63.457 17.12c0 0.293 0.154 0.482 0.343 0.419s0.343-0.251 0.343-0.419-0.154-0.356-0.343-0.419c-0.188-0.063-0.343 0.125-0.343 0.419zM58.673 17.739c0 0.612 0.188 0.8 0.877 0.88 0.63 0.073 0.85 0.259 0.783 0.661-0.056 0.332 0.107 0.56 0.399 0.56 0.632 0 0.643-0.834 0.014-1.076-0.263-0.101-0.478-0.548-0.478-0.994 0-0.651-0.157-0.81-0.797-0.81-0.632 0-0.797 0.161-0.797 0.779zM54.209 18.88c0 0.356-0.213 0.64-0.478 0.64s-0.478-0.284-0.478-0.64 0.213-0.64 0.478-0.64c0.266 0 0.478 0.284 0.478 0.64zM57.239 18.56c-0.108 0.176 0.027 0.32 0.3 0.32s0.497-0.144 0.497-0.32c0-0.176-0.135-0.32-0.3-0.32s-0.389 0.144-0.497 0.32zM93.112 18.907c0 0.78 0.745 0.67 0.9-0.133 0.061-0.316-0.101-0.533-0.398-0.533-0.296 0-0.502 0.274-0.502 0.667zM50.064 19.36c0 0.267-0.283 0.48-0.638 0.48s-0.638-0.213-0.638-0.48 0.284-0.48 0.638-0.48c0.354 0 0.638 0.213 0.638 0.48zM43.048 19.68c0 0.264-0.215 0.48-0.478 0.48s-0.478-0.216-0.478-0.48 0.215-0.48 0.478-0.48c0.263 0 0.478 0.216 0.478 0.48zM61.543 20.16c0 0.427 0.213 0.64 0.638 0.64s0.638-0.213 0.638-0.64-0.213-0.64-0.638-0.64c-0.425 0-0.638 0.213-0.638 0.64zM55.166 20.96c0 1.067 0.053 1.12 1.116 1.12s1.116-0.053 1.116-1.12-0.053-1.12-1.116-1.12c-1.063 0-1.116 0.053-1.116 1.12zM58.094 20.72c0.080 0.698 0.265 0.88 0.898 0.88s0.818-0.182 0.898-0.88c0.091-0.794 0.004-0.88-0.898-0.88s-0.989 0.086-0.898 0.88zM68.16 20.186c-0.307 0.18-0.558 0.535-0.558 0.79 0 0.546 0.849 0.63 1.024 0.101 0.141-0.423 1.527-0.075 1.527 0.384 0 0.164-0.365 0.299-0.812 0.299-1.064 0-2.39 1.323-2.17 2.166 0.215 0.825 1.563 1.454 2.286 1.066 0.299-0.161 0.936-0.217 1.417-0.124 0.852 0.164 1.214-0.298 0.554-0.707-0.175-0.109-0.319-0.837-0.319-1.619 0-2.154-1.393-3.266-2.95-2.356zM73.096 20.226c-1.196 0.591-1.465 2.58-0.541 3.995 0.429 0.657 0.724 0.779 1.623 0.674 0.864-0.101 1.080-0.022 1.006 0.368-0.064 0.338-0.533 0.529-1.467 0.596-1.736 0.125-1.631 0.822 0.144 0.956 1.908 0.143 2.499-0.678 2.505-3.483 0.003-1.216 0.113-2.211 0.244-2.212s0.239-0.22 0.239-0.486c0-0.324-0.292-0.474-0.877-0.452-0.482 0.018-1.164-0.045-1.515-0.141s-0.963-0.012-1.362 0.185zM78.604 20.21c-0.995 0.546-1.436 1.268-1.425 2.332 0.019 1.855 1.855 3.116 3.412 2.342 0.447-0.222 0.756-0.547 0.688-0.723-0.116-0.3-0.378-0.305-1.559-0.031-0.497 0.116-1.594-0.668-1.594-1.139 0-0.149 0.789-0.27 1.754-0.27 1.644 0 1.754-0.049 1.754-0.777 0-0.458-0.345-1.049-0.84-1.44-0.948-0.748-1.279-0.793-2.189-0.294zM84.343 20.147c-0.351 0.144-1.032 0.188-1.515 0.097-0.856-0.161-1.219 0.305-0.558 0.716 0.175 0.109 0.319 1.053 0.319 2.099 0 1.476 0.107 1.901 0.478 1.901 0.361 0 0.478-0.39 0.478-1.593 0-1.354 0.122-1.673 0.813-2.128 1.070-0.703 1.361-0.349 1.48 1.8 0.086 1.546 0.185 1.772 0.815 1.862 0.726 0.103 0.985-0.379 0.399-0.742-0.175-0.109-0.319-0.901-0.319-1.761 0-1.252-0.141-1.662-0.709-2.061-0.791-0.556-0.794-0.556-1.683-0.191zM89.126 20.202c-1.379 0.773-1.861 2.401-1.123 3.786 0.658 1.233 3.303 1.452 3.994 0.331 0.357-0.579-0.095-0.771-0.924-0.392-1.566 0.716-2.813-0.439-2.282-2.114 0.285-0.904 1.096-1.11 2.008-0.51 0.921 0.606 1.565 0.215 0.959-0.582-0.534-0.702-1.844-0.96-2.632-0.518zM95.902 20.186c-0.307 0.18-0.557 0.535-0.557 0.79 0 0.552 0.374 0.6 0.86 0.112 0.387-0.388 1.69-0.1 1.69 0.373 0 0.164-0.351 0.299-0.779 0.299-1.195 0-2.544 1.31-2.264 2.197 0.246 0.78 1.599 1.465 2.18 1.104 0.198-0.123 0.832-0.191 1.408-0.152 1.006 0.068 1.398-0.335 0.73-0.749-0.175-0.109-0.319-0.901-0.319-1.761 0-1.252-0.141-1.662-0.708-2.061-0.815-0.573-1.448-0.616-2.241-0.153zM104.487 20.052c-0.116 0.116-0.687 0.194-1.267 0.172l-1.055-0.040 0.118 2.948c0.065 1.621 0.177 3.128 0.247 3.348 0.266 0.829 0.787 0.356 0.787-0.713 0-1.066 0.033-1.098 0.784-0.755 0.63 0.288 0.947 0.252 1.608-0.183 1.629-1.071 1.743-3.166 0.239-4.354-0.861-0.68-1.128-0.757-1.461-0.423zM109.907 20.052c-0.116 0.117-0.786 0.19-1.488 0.162-1.206-0.047-1.662 0.308-0.957 0.745 0.175 0.109 0.319 1.053 0.319 2.099 0 1.476 0.107 1.901 0.478 1.901 0.347 0 0.479-0.358 0.479-1.301 0-1.506 0.458-2.539 1.127-2.539 0.257 0 0.467-0.288 0.467-0.64 0-0.681-0.085-0.768-0.424-0.428zM111.244 20.452c-0.941 0.765-0.554 1.246 0.532 0.662 0.701-0.377 0.876-0.363 1.343 0.106 0.503 0.506 0.493 0.539-0.154 0.539-2.118 0-3.354 1.841-1.983 2.955 0.478 0.388 0.984 0.532 1.404 0.399 0.361-0.114 1.158-0.189 1.772-0.166 0.892 0.034 1.036-0.038 0.717-0.357-0.219-0.22-0.398-0.94-0.398-1.6 0-1.568-0.548-2.732-1.394-2.96-0.973-0.262-1.010-0.254-1.839 0.421zM116.047 20.775c-0.513 0.515-0.932 1.275-0.932 1.689 0 0.979 0.823 2.14 1.773 2.503 0.947 0.361 2.691-0.204 2.691-0.873 0-0.334-0.172-0.412-0.558-0.252-1.274 0.526-1.647 0.505-2.282-0.132-0.836-0.839-0.844-1.452-0.029-2.269 0.763-0.766 1.075-0.795 1.708-0.16 0.606 0.608 1.162 0.617 1.162 0.018 0-0.575-1.217-1.458-2.008-1.458-0.325 0-1.011 0.421-1.524 0.935zM92.474 20.439c0 0.178 0.143 0.412 0.319 0.521s0.319 1.192 0.319 2.408c0 1.882-0.095 2.26-0.638 2.552-0.799 0.429-0.827 0.96-0.049 0.96 1.265 0 1.677-1.015 1.578-3.88-0.087-2.502-0.141-2.686-0.811-2.782-0.394-0.056-0.717 0.044-0.717 0.221zM119.588 20.24c0.005 0.044 0.493 1.088 1.085 2.32 1.189 2.476 1.101 3.36-0.334 3.36-0.509 0-0.763 0.15-0.68 0.4 0.073 0.22 0.551 0.4 1.062 0.4 0.996 0 1.257-0.378 2.991-4.32 0.426-0.968 0.83-1.868 0.898-2s-0.169-0.24-0.527-0.24c-0.493 0-0.788 0.388-1.217 1.6-0.311 0.88-0.642 1.6-0.735 1.6s-0.424-0.72-0.735-1.6c-0.419-1.182-0.73-1.6-1.191-1.6-0.344 0-0.62 0.036-0.616 0.080zM53.571 21.28c0 0.64-0.159 0.8-0.797 0.8s-0.797-0.16-0.797-0.8c0-0.64 0.159-0.8 0.797-0.8s0.797 0.16 0.797 0.8zM74.879 21.077c0.264 0.168 0.382 0.733 0.319 1.515-0.094 1.15-0.177 1.247-1.059 1.247-0.858 0-0.968-0.114-1.061-1.106-0.074-0.777 0.063-1.229 0.459-1.52 0.659-0.483 0.778-0.495 1.342-0.137zM80.357 21.28c0.34 0.412 0.232 0.48-0.758 0.48-1.126 0-1.555-0.425-0.756-0.748 0.716-0.29 1.111-0.22 1.515 0.268zM105.805 22.628c-0.136 1.592-1.035 2.119-1.871 1.096-0.785-0.96-0.779-1.483 0.028-2.292 0.52-0.522 0.77-0.58 1.293-0.299 0.502 0.269 0.627 0.608 0.551 1.495zM50.702 22.24c0 0.264-0.215 0.48-0.478 0.48s-0.478-0.216-0.478-0.48 0.215-0.48 0.478-0.48c0.263 0 0.478 0.216 0.478 0.48zM57.824 22.581c-0.266 0.695 0.409 1.349 0.892 0.864 0.408-0.41 0.155-1.365-0.361-1.365-0.187 0-0.425 0.226-0.531 0.501zM55.697 22.613c-0.117 0.117-0.213 0.549-0.213 0.96 0 0.569 0.177 0.747 0.744 0.747 0.969 0 1.109-0.171 0.927-1.128-0.143-0.752-0.962-1.077-1.458-0.579zM60.371 23.232c-0.245 0.639 0.531 1.169 1.063 0.726 0.482-0.402 0.203-1.238-0.413-1.238-0.25 0-0.542 0.23-0.65 0.512zM70.153 23.189c0 0.723-1.212 1.262-1.778 0.791-0.351-0.292-0.375-0.49-0.1-0.822 0.489-0.591 1.878-0.568 1.878 0.031zM97.895 23.017c0 0.375-0.911 1.303-1.279 1.303-0.43 0-0.71-0.62-0.513-1.135 0.193-0.504 1.792-0.654 1.792-0.167zM113.521 23.189c0 0.581-1.167 1.242-1.779 1.006-0.56-0.215-0.595-1.044-0.054-1.263 0.842-0.341 1.834-0.202 1.834 0.257zM54.282 23.42c0.197 0.593 0.884 0.692 0.884 0.126 0-0.278-0.227-0.507-0.505-0.507s-0.448 0.171-0.379 0.38zM49.107 24c0 0.176-0.152 0.32-0.338 0.32s-0.249-0.144-0.141-0.32 0.26-0.32 0.338-0.32c0.077 0 0.141 0.144 0.141 0.32zM51.557 24.38c-0.102 0.255-0.177 0.179-0.193-0.194-0.014-0.337 0.062-0.526 0.167-0.42s0.117 0.382 0.025 0.613zM48.151 25.92c0 0.176-0.063 0.32-0.141 0.32s-0.229-0.144-0.338-0.32-0.045-0.32 0.141-0.32c0.186 0 0.338 0.144 0.338 0.32z"></path>
</svg>
