<!-- Generated by IcoMoon.io -->
<svg version="1.1" xmlns="http://www.w3.org/2000/svg" width="41" height="32" viewBox="0 0 41 32">
<title>2</title>
<path d="M13.603 0.257c-4.336 0.66-8.086 1.712-11.283 3.167-1.019 0.464-1.852 0.932-1.852 1.040s0.134 0.154 0.299 0.101c3.657-1.17 10.594-2.241 15.703-2.424 2.167-0.078 4.245-0.382 4.245-0.382s0.346-0.051 0.385 0c0.171 0.224 1.373 2.27 2.536 4.462 2.108 3.972 6.214 11.536 7.317 13.481 0.572 1.009 1.040 1.882 1.040 1.94s0.413 0.837 0.918 1.731c0.505 0.894 1.593 2.909 2.419 4.478s1.622 2.972 1.769 3.118c0.285 0.282 3.178 1.048 3.899 1.032 0.505-0.011-0.52-0.967-2.434-2.27-1.376-0.936-1.276-0.978 0.794-0.332 1.677 0.523 1.949 0.562 1.949 0.28 0-0.196-2.124-1.65-4.060-2.778-0.591-0.345-0.86-0.573-0.597-0.508s1.316 0.347 2.341 0.626c1.025 0.279 1.991 0.465 2.149 0.412 0.339-0.113-1.137-1.084-3.773-2.481-2.119-1.123-1.854-1.147 1.78-0.161 3.381 0.918 2.926 0.374-1.542-1.843-3.122-1.549-2.931-1.635 1.194-0.539 1.182 0.314 2.236 0.571 2.343 0.571 0.782 0.001-2.273-1.772-5.158-2.993-0.891-0.377-1.515-0.721-1.386-0.763s1.644 0.261 3.367 0.676c1.722 0.415 3.196 0.69 3.275 0.611 0.157-0.157-5.236-2.755-6.697-3.226-0.501-0.162-0.863-0.342-0.804-0.401 0.241-0.24 3.485 0.439 7.179 1.502 0.316 0.091 0.393 0.041 0.264-0.167-0.261-0.42-5.161-2.688-7.214-3.339-0.949-0.301-1.693-0.58-1.653-0.62 0.126-0.126 4.97 0.832 6.779 1.341 0.951 0.267 1.844 0.486 1.985 0.486 1.162 0-3.091-2.052-6.937-3.347-1.511-0.509-2.617-0.926-2.46-0.928 0.55-0.007 5.461 0.976 7.286 1.458 1.012 0.267 1.979 0.439 2.149 0.381 0.597-0.203-5.243-2.761-7.997-3.503-0.628-0.169-1.097-0.351-1.044-0.404 0.253-0.252 5.334 0.751 8.812 1.74 0.23 0.065 0.418 0.024 0.418-0.091 0-0.334-3.675-1.964-6.926-3.070-1.642-0.559-2.77-1.019-2.507-1.023 0.68-0.010 4.894 0.81 7.252 1.41 1.099 0.28 2.050 0.457 2.114 0.393 0.322-0.32-4.998-2.568-8.256-3.489-1.097-0.31-1.89-0.598-1.762-0.641 0.366-0.122 5.72 0.85 7.648 1.388 2.479 0.692 2.897 0.465 0.885-0.479-2.394-1.124-4.433-1.875-7.165-2.641-1.314-0.368-2.227-0.677-2.030-0.686 0.73-0.034 6.163 0.952 8.351 1.516 1.243 0.32 2.301 0.543 2.349 0.495 0.174-0.173-1.129-0.873-3.158-1.697-2.144-0.87-5.337-1.757-8.617-2.395-2.601-0.506-13.041-0.647-15.882-0.215zM15.991 4.595c-3.777 0.368-8.055 1.28-11.105 2.369-2.189 0.781-4.843 2.047-4.518 2.155 0.141 0.047 1.538-0.229 3.104-0.614 4.331-1.063 10.504-1.906 14.088-1.924 0.601-0.003 0.804-0.154 1.134-0.844 0.221-0.462 0.402-0.943 0.402-1.070 0-0.219-1.292-0.249-3.105-0.072zM13.961 9.351c-3.382 0.416-9.662 2.206-12.18 3.472-1.776 0.893-1.413 1.070 0.883 0.432 2.263-0.629 8.095-1.615 10.763-1.82 1.903-0.146 2.133-0.218 2.528-0.786 0.879-1.264 0.841-1.461-0.271-1.421-0.554 0.020-1.33 0.075-1.724 0.124zM10.737 14.536c-1.511 0.305-3.714 0.874-4.896 1.265-4.732 1.564-7.636 3.407-3.224 2.046 1.354-0.417 8.819-1.763 9.781-1.763 0.594 0 0.8-0.16 1.19-0.921 0.423-0.825 0.435-1.253 0.035-1.199-0.076 0.010-1.375 0.268-2.886 0.573zM8.348 19.631c-3.317 0.884-7.881 2.723-7.881 3.175 0 0.125 0.188 0.174 0.418 0.109 2.567-0.726 4.645-1.194 6.829-1.538 2.467-0.388 2.644-0.453 3.058-1.129 0.242-0.395 0.44-0.798 0.44-0.896 0.001-0.284-1.187-0.169-2.865 0.278zM5.483 25.103c-2.487 0.845-4.679 1.805-4.888 2.14-0.224 0.36 0.266 0.308 1.969-0.207 0.825-0.25 1.953-0.525 2.508-0.611 2.078-0.325 2.716-0.58 2.999-1.199 0.153-0.334 0.278-0.655 0.278-0.714 0-0.253-0.967-0.053-2.866 0.592zM3.93 30.229c-1.816 0.66-3.549 1.537-3.377 1.708 0.073 0.072 1.091-0.104 2.263-0.393 1.796-0.442 2.174-0.619 2.408-1.129 0.152-0.333 0.246-0.628 0.209-0.656s-0.713 0.184-1.502 0.47z"></path>
</svg>
