<!-- Generated by IcoMoon.io -->
<svg version="1.1" xmlns="http://www.w3.org/2000/svg" width="75" height="32" viewBox="0 0 75 32">
<title>6</title>
<path d="M29.495 0.183c-0.605 0.101-1.206 0.458-1.335 0.793s-0.359 3.949-0.512 8.029l-0.278 7.42h-17.267l0.956-1.706c1.82-3.249 5.686-5.799 12.104-7.983 3.164-1.076 3.737-1.411 3.856-2.251 0.161-1.137-0.642-2.84-1.569-3.325-0.795-0.415-7.044 1.12-10.959 2.693-7.447 2.992-12.473 7.549-13.704 12.425-0.895 3.547 0.625 7.835 3.877 10.934 2.219 2.114 5.934 4.493 7.018 4.493 1.062 0 4.255-2.867 4.255-3.821 0-0.355-1.208-1.853-2.684-3.33s-2.684-2.98-2.684-3.342c0-0.58 0.997-0.658 8.465-0.658h8.465v5.153c0 5.044 0.022 5.167 1.035 5.831 0.855 0.56 1.24 0.593 2.214 0.19 2.008-0.832 2.196-2.226 2.047-15.179l-0.134-11.646 2.547-0.273c1.401-0.15 3.656-0.144 5.011 0.014l2.464 0.286-0.012 12.045c-0.008 7.987 0.145 12.429 0.452 13.186 0.642 1.578 2.233 2.263 3.581 1.542 1.011-0.541 1.029-0.639 1.029-5.643 0-3.478 0.146-5.093 0.462-5.093 0.254 0 2.729 0.754 5.501 1.676l5.039 1.676 5.534-2.084-1.091 1.431c-0.6 0.787-1.208 1.436-1.352 1.444s-0.776 0.467-1.406 1.021c-1.099 0.967-1.122 1.065-0.563 2.402 0.593 1.42 2.891 3.171 4.161 3.171 0.953 0 4.134-2.18 6.563-4.497 6.867-6.551 5.183-14.836-4.168-20.515-3.676-2.232-7.218-3.661-12.279-4.953l-3.716-0.949-1.136 1.215c-0.625 0.669-1.136 1.571-1.136 2.005 0 0.933 1.048 2.088 1.895 2.088 1.098 0 6.383 2.016 8.554 3.263 2.376 1.364 5.255 4.203 5.959 5.875l0.457 1.084-9.075 2.916-7.997-2.68-0.261-7.742c-0.169-5.010-0.431-7.912-0.742-8.223-0.478-0.479-14.986-0.821-17.439-0.411z"></path>
</svg>
