<!-- Generated by IcoMoon.io -->
<svg version="1.1" xmlns="http://www.w3.org/2000/svg" width="27" height="32" viewBox="0 0 27 32">
<title>7</title>
<path d="M11.155 0.267c-2.216 0.486-4.193 1.607-6.038 3.424-3.235 3.188-4.878 7.348-4.88 12.358-0.002 4.827 1.508 8.826 4.567 12.093 1.047 1.118 2.238 2.002 3.646 2.707 1.931 0.966 2.813 1.158 5.281 1.151 1.977-0.006 2.346-0.055 3.502-0.457 0.711-0.247 1.816-0.753 2.455-1.124 1.508-0.874 3.73-3.102 4.763-4.775 4.353-7.050 3.264-16.824-2.471-22.18-3.082-2.878-7.002-4.036-10.826-3.198zM16.931 1.561c7.057 2.359 10.933 11.304 8.476 19.563-1.453 4.884-4.993 8.595-9.225 9.67-0.492 0.125-1.669 0.228-2.614 0.228-1.45 0-1.944-0.073-3.16-0.47-4.124-1.347-7.408-5.184-8.741-10.212-0.367-1.384-0.421-1.925-0.426-4.207-0.004-2.157 0.058-2.875 0.355-4.076 0.712-2.887 1.99-5.302 3.831-7.239 1.865-1.963 4.105-3.243 6.393-3.655 1.446-0.26 3.655-0.087 5.111 0.4zM11.113 1.745c-3.297 0.88-6.091 3.219-7.799 6.53-1.441 2.794-1.967 5.319-1.807 8.674 0.289 6.044 3.589 11.036 8.563 12.954 1.484 0.572 4.339 0.726 5.957 0.321 1.991-0.498 3.675-1.471 5.244-3.029 1.96-1.947 3.049-3.784 3.82-6.444 2.415-8.335-1.827-17.213-9.079-19.003-1.323-0.327-3.683-0.328-4.9-0.003zM16.485 3.050c4.033 1.352 6.955 4.954 7.965 9.818 0.52 2.504 0.27 6.127-0.58 8.399-1.86 4.973-5.733 8.066-10.127 8.086-2.754 0.012-4.705-0.776-7.073-2.858-0.869-0.764-2.008-2.372-2.702-3.813-3.39-7.045-0.831-16.045 5.425-19.079 1.66-0.805 2.244-0.938 4.227-0.958 1.322-0.013 1.831 0.059 2.864 0.405zM10.834 3.516c-4.527 1.466-7.645 5.96-8.009 11.541-0.277 4.253 1.099 8.067 3.937 10.911 2.482 2.488 5.567 3.458 8.811 2.771 5.608-1.188 9.584-7.641 8.816-14.304-0.377-3.269-1.546-5.909-3.564-8.048-1.341-1.422-2.545-2.222-4.219-2.805-1.768-0.615-3.998-0.641-5.771-0.067zM15.368 4.273c3.583 0.797 6.455 3.811 7.711 8.093 0.328 1.12 0.383 1.653 0.373 3.683-0.009 2.086-0.064 2.548-0.449 3.815-0.745 2.453-1.73 4.067-3.43 5.621-1.825 1.668-3.707 2.418-6.006 2.392-3.491-0.039-6.498-2.063-8.333-5.608-1.024-1.979-1.339-3.219-1.44-5.683-0.076-1.848-0.038-2.387 0.264-3.691 1.197-5.18 5.048-8.734 9.51-8.775 0.585-0.005 1.395 0.064 1.8 0.154zM13.009 5.33c-1.841 0.645-2.262 3.355-0.754 4.862 0.553 0.553 0.708 0.62 1.445 0.62 0.916 0 1.637-0.457 2.084-1.321 0.386-0.746 0.315-2.448-0.129-3.1-0.73-1.072-1.608-1.425-2.645-1.061zM10.294 12.285v0.818h1.473v1.146c0 1.14-0.002 1.146-0.45 1.147-0.248 0.001-0.722 0.047-1.054 0.102-1.028 0.17-1.713 1.123-0.951 1.322 0.18 0.047 0.327 0.188 0.327 0.312 0 0.293 0.442 0.287 1.309-0.019 0.383-0.135 0.723-0.245 0.757-0.245s0.061 0.295 0.061 0.655c0 0.447-0.072 0.655-0.226 0.655-0.657 0-0.744 1.187-0.101 1.391 0.293 0.093 0.327 0.248 0.327 1.484v1.38h-1.073c-0.59 0-1.589-0.117-2.221-0.261-1.28-0.291-1.567-0.206-0.959 0.284 0.81 0.653 2.186 1.189 3.23 1.257 0.95 0.063 1.023 0.095 1.023 0.457 0 0.353-0.070 0.39-0.736 0.39h-0.737v1.637h6.711v-1.637h-1.309v-0.655c0-0.493 0.065-0.655 0.264-0.655 0.498 0 1.872-0.875 2.195-1.398 0.686-1.11 0.274-2.768-0.822-3.311l-0.627-0.31 0.773-0.198c1.531-0.392 2.342-1.168 2.342-2.239 0-1.176-1.092-1.783-3.026-1.684l-1.099 0.056 0-0.532c0-0.511 0.026-0.532 0.655-0.532h0.655v-1.637h-6.711v0.818zM14.877 15.381v2.278l-0.826 0.177c-1.575 0.338-1.465 0.508-1.465-2.278v-2.455h2.291v2.278zM16.746 15.494c0.426 0.164 0.295 0.653-0.32 1.193-0.318 0.279-0.613 0.508-0.655 0.508s-0.076-0.363-0.076-0.806c0-0.63 0.063-0.823 0.286-0.881 0.451-0.118 0.49-0.118 0.764-0.013zM14.877 20.462v1.303l-0.848 0.252c-1.46 0.434-1.443 0.447-1.443-1.116v-1.368l0.532-0.171c0.293-0.094 0.808-0.178 1.146-0.187l0.614-0.017v1.303zM16.125 19.903c0.233 0.356 0.241 0.475 0.058 0.818-0.33 0.617-0.487 0.482-0.487-0.417 0-0.45 0.035-0.818 0.078-0.818s0.201 0.187 0.351 0.416zM14.877 24.069v0.491h-1.146c-1.106 0-1.146-0.014-1.146-0.401 0-0.366 0.073-0.406 0.859-0.461 0.473-0.033 0.988-0.074 1.146-0.090 0.216-0.023 0.286 0.091 0.286 0.461z"></path>
</svg>
