<!-- Generated by IcoMoon.io -->
<svg version="1.1" xmlns="http://www.w3.org/2000/svg" width="132" height="32" viewBox="0 0 132 32">
<title>8</title>
<path d="M16.947 0.011l4.893 4.629-0.711 0.739 4.751 4.316-0.655 0.596 16.047 15.164-0.74 0.795-25.607-24.024 2.020-2.215zM14.529 2.639l4.894 4.629-0.711 0.738 4.751 4.316-0.655 0.596 16.047 15.163-0.74 0.796-25.607-24.024 2.020-2.215zM12.004 5.303l4.894 4.629-0.711 0.739 4.751 4.316-0.655 0.596 16.047 15.164-0.739 0.796-25.607-24.024 2.020-2.216zM9.551 8.010l4.865 4.572-0.682 0.682 15.762 14.767-1.366 1.193-20.628-19.112 2.049-2.101zM7.098 10.602l4.865 4.572-0.683 0.682 15.762 14.767-1.365 1.192-20.628-19.111 2.049-2.101zM4.552 13.321l15.307 14.255-1.849 1.903-15.392-14.199 1.934-1.959zM2.135 15.841l15.307 14.257-1.85 1.903-15.393-14.199 1.935-1.96zM22.118 4.193l10.585 9.854 0.796-0.795-5.86-5.452 0.654-0.653-4.808-4.515-1.366 1.561zM24.514 1.621l10.641 9.797 0.797-0.795-5.861-5.452 0.654-0.653-4.808-4.515-1.423 1.618zM31.714 3.365l5.89 5.395 0.768-0.824-5.804-5.367-0.854 0.795zM34.131 0.767l5.889 5.509 0.769-0.824-5.918-5.452-0.74 0.767zM47.912 7.254h11.72v16.427h-1.465v-14.903h-10.255v-1.524z"></path>
<path d="M47.912 9.594h9.445v14.094h-1.496v-12.539h-7.949v-1.556zM59.6 15.355l8.074-8.12 1.122 0.996-6.982 7.063 6.795 6.908h6.267v-12.632h11.783v1.555c0 1.711-1.434 3.765-3.958 3.765h-3.586v2.209c0 2.676 2.245 5.103 4.582 5.103h5.3v1.462h-6.267c-2.556 0-5.050-3.889-5.050-6.565v-3.734h5.644c1.090 0 1.9-1.4 1.9-2.24h-8.821v12.539h-8.636l-8.167-8.307z"></path>
<path d="M69.429 8.766l-6.484 6.534 5.892 6.128h5.299v-12.662h13.279v2.365c0 2.24-2.244 4.449-4.208 4.449h-3.273v1.524c0 1.712 1.434 4.324 3.896 4.324h5.174v-1.555h-5.018c-1.434 0-2.618-1.183-2.618-2.77h1.496c2.93 0 6.14-2.737 6.14-5.973v-3.889h-16.365v12.631h-3.211l-4.489-4.667 5.487-5.383-0.997-1.057zM98.904 19.877c2.307 0 4.8-2.77 4.8-4.294v-3.64h1.496v3.64c0 2.988-3.773 5.849-6.827 5.849h-7.388v-1.554h7.919z"></path>
<path d="M90.986 22.216h7.076c3.617 0 7.886-3.080 7.886-6.004l-0.062-4.261h1.496v4.261c0 3.579-4.363 7.467-9.008 7.467h-7.388v-1.463z"></path>
<path d="M90.986 18.847v-3.266c0-4.511 3.055-8.338 7.544-8.338h15.462v16.427h-1.528v-14.903h-13.155c-4.55 0-6.828 3.174-6.828 6.814v3.266h-1.495z"></path>
<path d="M93.312 15.571c0-1.929 1.464-6.004 5.392-6.004h13.030v14.094h-1.434v-12.601h-12.5c-2.026 0.871-2.898 2.614-2.898 4.511v3.266h-1.59v-3.266zM132.040 23.672v-1.463h-8.573l-7.138-7.311 7.014-6.813-1.091-1.12-8.26 7.934 8.479 8.774h9.57z"></path>
<path d="M132.040 21.425v-1.555h-7.482l-4.988-4.979 5.424-5.32-1.215-1.089-6.422 6.409 6.422 6.534h8.261z"></path>
</svg>
