<!-- Generated by IcoMoon.io -->
<svg version="1.1" xmlns="http://www.w3.org/2000/svg" width="20" height="20" viewBox="0 0 20 20">
<title>document-diagrams</title>
<path d="M11.875 11.25v-1.875h-3.125v3.125h-2.5v3.75h8.125v-5h-2.5zM12.188 1.875h0.313l3.75 4.375v11.256c0 0.683-0.559 1.244-1.248 1.244h-9.378c-0.692 0-1.248-0.562-1.248-1.255v-14.366c0-0.693 0.56-1.255 1.252-1.255h6.561zM11.875 2.5h-6.253c-0.344 0-0.622 0.285-0.622 0.622v14.381c0 0.344 0.284 0.622 0.625 0.622h9.375c0.345 0 0.625-0.278 0.625-0.621v-10.629h-2.501c-0.69 0-1.249-0.554-1.249-1.254v-3.121zM12.5 2.813v2.807c0 0.348 0.282 0.63 0.623 0.63h2.315l-2.937-3.438zM6.875 13.125h1.875v2.5h-1.875v-2.5zM9.375 10h1.875v5.625h-1.875v-5.625zM11.875 11.875h1.875v3.75h-1.875v-3.75z"></path>
</svg>
