<!-- Generated by IcoMoon.io -->
<svg version="1.1" xmlns="http://www.w3.org/2000/svg" width="32" height="32" viewBox="0 0 32 32">
<title>envelope-small</title>
<path fill="#ffd012" d="M28.421 3.368h-25.263c-1.737 0-3.142 1.421-3.142 3.158l-0.016 18.947c0 1.737 1.421 3.158 3.158 3.158h25.263c1.737 0 3.158-1.421 3.158-3.158v-18.947c0-1.737-1.421-3.158-3.158-3.158zM27.789 10.079l-11.163 6.979c-0.505 0.316-1.168 0.316-1.674 0l-11.163-6.979c-0.158-0.089-0.297-0.209-0.408-0.353s-0.191-0.309-0.236-0.485c-0.045-0.176-0.054-0.359-0.026-0.539s0.092-0.351 0.188-0.505c0.096-0.154 0.223-0.287 0.372-0.39s0.318-0.176 0.495-0.213c0.178-0.037 0.361-0.037 0.539-0.001s0.347 0.108 0.496 0.212l10.579 6.616 10.579-6.616c0.149-0.103 0.318-0.175 0.496-0.212s0.361-0.036 0.539 0.001 0.346 0.109 0.495 0.213c0.149 0.104 0.276 0.236 0.372 0.39s0.16 0.326 0.188 0.505c0.028 0.179 0.019 0.363-0.026 0.539s-0.125 0.341-0.236 0.485c-0.111 0.144-0.249 0.264-0.408 0.353z"></path>
</svg>
