<svg width="20" height="16" viewBox="0 0 20 16" fill="none" xmlns="http://www.w3.org/2000/svg">
<path d="M17.1494 0.5H1.97701C0.933908 0.5 0.0899423 1.34375 0.0899423 2.375L0.0804596 13.625C0.0804596 14.6562 0.933908 15.5 1.97701 15.5H17.1494C18.1925 15.5 19.046 14.6562 19.046 13.625V2.375C19.046 1.34375 18.1925 0.5 17.1494 0.5ZM16.7701 4.48438L10.0658 8.62813C9.76236 8.81563 9.36408 8.81563 9.06063 8.62813L2.35632 4.48438C2.26124 4.4316 2.17797 4.36031 2.11156 4.2748C2.04515 4.18929 1.99698 4.09135 1.96997 3.98691C1.94296 3.88247 1.93766 3.77369 1.9544 3.66716C1.97114 3.56064 2.00957 3.45858 2.06736 3.36716C2.12516 3.27574 2.20111 3.19686 2.29063 3.13531C2.38015 3.07375 2.48137 3.03079 2.58817 3.00903C2.69497 2.98727 2.80512 2.98716 2.91197 3.0087C3.01881 3.03025 3.12012 3.073 3.20977 3.13437L9.56322 7.0625L15.9167 3.13437C16.0063 3.073 16.1076 3.03025 16.2145 3.0087C16.3213 2.98716 16.4315 2.98727 16.5383 3.00903C16.6451 3.03079 16.7463 3.07375 16.8358 3.13531C16.9253 3.19686 17.0013 3.27574 17.0591 3.36716C17.1169 3.45858 17.1553 3.56064 17.172 3.66716C17.1888 3.77369 17.1835 3.88247 17.1565 3.98691C17.1295 4.09135 17.0813 4.18929 17.0149 4.2748C16.9485 4.36031 16.8652 4.4316 16.7701 4.48438Z" fill="black"/>
</svg>
