<svg width="19" height="19" viewBox="0 0 19 19" fill="none" xmlns="http://www.w3.org/2000/svg">
<path d="M17.7687 14.4547L13.657 10.7587C13.4627 10.584 13.2073 10.4909 12.9447 10.4989C12.6822 10.5069 12.4331 10.6155 12.25 10.8017L9.82953 13.2627C9.24691 13.1527 8.0756 12.7917 6.86989 11.6027C5.66419 10.4097 5.29904 9.24869 5.19081 8.67669L7.67808 6.28269C7.86663 6.10182 7.97661 5.85551 7.98472 5.5959C7.99284 5.33628 7.89847 5.08373 7.72157 4.89169L3.9841 0.827692C3.80713 0.635049 3.56117 0.518196 3.29846 0.501952C3.03575 0.485707 2.77698 0.57135 2.57711 0.740692L0.38217 2.60169C0.207294 2.77521 0.102916 3.00614 0.0888368 3.25069C0.0736643 3.50069 -0.215623 9.42269 4.42916 14.0167C8.4812 18.0217 13.5569 18.3147 14.9548 18.3147C15.1591 18.3147 15.2845 18.3087 15.3179 18.3067C15.5652 18.293 15.7987 18.1894 15.9733 18.0157L17.8547 15.8447C18.0267 15.6477 18.114 15.3921 18.0979 15.1324C18.0818 14.8727 17.9637 14.6295 17.7687 14.4547Z" fill="black"/>
</svg>
