<!-- Generated by IcoMoon.io -->
<svg version="1.1" xmlns="http://www.w3.org/2000/svg" width="41" height="32" viewBox="0 0 41 32">
<title>envelope</title>
<path fill="#ffd012" d="M36 0h-32c-2.2 0-3.98 1.8-3.98 4l-0.020 24c0 2.2 1.8 4 4 4h32c2.2 0 4-1.8 4-4v-24c0-2.2-1.8-4-4-4zM35.2 8.5l-14.14 8.84c-0.64 0.4-1.48 0.4-2.12 0l-14.14-8.84c-0.201-0.113-0.376-0.265-0.516-0.447s-0.242-0.391-0.299-0.614c-0.057-0.223-0.068-0.455-0.033-0.682s0.116-0.445 0.238-0.64c0.122-0.195 0.282-0.363 0.471-0.495s0.402-0.223 0.628-0.269c0.225-0.046 0.458-0.047 0.683-0.001s0.439 0.137 0.628 0.268l13.4 8.38 13.4-8.38c0.189-0.131 0.403-0.222 0.628-0.268s0.458-0.046 0.683 0.001 0.439 0.138 0.627 0.269c0.189 0.131 0.349 0.3 0.471 0.495s0.203 0.413 0.238 0.64c0.035 0.227 0.024 0.459-0.033 0.682s-0.159 0.432-0.299 0.614c-0.14 0.182-0.316 0.335-0.516 0.447z"></path>
</svg>
