<!-- Generated by IcoMoon.io -->
<svg version="1.1" xmlns="http://www.w3.org/2000/svg" width="32" height="32" viewBox="0 0 32 32">
<title>tel</title>
<path fill="#ffd012" d="M31.089 24.808l-7.227-6.571c-0.342-0.311-0.791-0.476-1.252-0.462s-0.899 0.207-1.221 0.538l-4.254 4.375c-1.024-0.196-3.083-0.837-5.202-2.951-2.119-2.121-2.761-4.185-2.951-5.202l4.372-4.256c0.331-0.322 0.525-0.759 0.539-1.221s-0.152-0.911-0.463-1.252l-6.569-7.225c-0.311-0.342-0.743-0.55-1.205-0.579s-0.917 0.123-1.268 0.424l-3.858 3.308c-0.307 0.308-0.491 0.719-0.516 1.154-0.027 0.444-0.535 10.972 7.628 19.14 7.122 7.12 16.043 7.641 18.5 7.641 0.359 0 0.58-0.011 0.638-0.014 0.435-0.024 0.845-0.209 1.152-0.517l3.307-3.86c0.302-0.35 0.456-0.805 0.427-1.266s-0.236-0.894-0.578-1.205z"></path>
</svg>
