<svg width="800" height="800" xmlns="http://www.w3.org/2000/svg">

 <g>
  <title>Layer 1</title>
  <g stroke-width="0" stroke="null">
   <title stroke="null" fill="#cca60e">comment-alt2-fill</title>
   <path stroke="null" fill="#cca60e" d="m399.99999,1.21057c-192.66513,0 -348.94073,156.2756 -348.94073,348.94073c0,95.51006 38.55795,181.87289 100.7691,244.95639l-1.07175,203.68169l167.06784,-110.51451c26.49457,6.53018 53.73687,10.81716 82.17554,10.81716c192.66513,0 348.94073,-156.2756 348.94073,-348.94073s-156.2756,-348.94073 -348.94073,-348.94073z"/>
  </g>
  <g stroke="null">
   <title fill="#ffd00f" stroke="null">chat</title>
   <path fill="#ffd00f" stroke="null" d="m376.5,408.41501c0,2.21 1.79,4 4,4l6,0l0,6.17c0,1.11 0.9,2 2,2c0.561,0 1.069,-0.23 1.43,-0.6l7.57,-7.57l22,0c2.21,0 4,-1.79 4,-4l0,-25c0,-2.21 -1.79,-4 -4,-4l-39,0c-2.21,0 -4,1.79 -4,4l0,25zm12,-11.5c0,-1.38 1.12,-2.5 2.5,-2.5s2.5,1.12 2.5,2.5s-1.12,2.5 -2.5,2.5s-2.5,-1.12 -2.5,-2.5zm9,0c0,-1.38 1.12,-2.5 2.5,-2.5s2.5,1.12 2.5,2.5s-1.12,2.5 -2.5,2.5s-2.5,-1.12 -2.5,-2.5zm9,0c0,-1.38 1.12,-2.5 2.5,-2.5s2.5,1.12 2.5,2.5s-1.12,2.5 -2.5,2.5s-2.5,-1.12 -2.5,-2.5z"/>
  </g>
  <g stroke-width="0" stroke="null">
   <title fill="#cca60e" stroke="null">commenting</title>
   <path fill="#cca60e" stroke="null" d="m331.67708,340.48213c0,-18.65302 -14.98633,-33.63934 -33.63934,-33.63934s-33.63934,14.98633 -33.63934,33.63934s14.98633,33.63934 33.63934,33.63934s33.63934,-14.98633 33.63934,-33.63934zm100.91803,0c0,-18.65302 -14.98633,-33.63934 -33.63934,-33.63934s-33.63934,14.98633 -33.63934,33.63934s14.98633,33.63934 33.63934,33.63934s33.63934,-14.98633 33.63934,-33.63934zm100.91803,0c0,-18.65302 -14.98633,-33.63934 -33.63934,-33.63934s-33.63934,14.98633 -33.63934,33.63934s14.98633,33.63934 33.63934,33.63934s33.63934,-14.98633 33.63934,-33.63934zm100.91803,0c0,93.0296 -105.39206,168.19672 -235.4754,168.19672c-19.19125,0 -37.84426,-1.58105 -55.45446,-4.72633c-29.95584,29.95584 -69.11203,50.45902 -114.32331,60.18079c-7.0979,1.31193 -14.71721,2.62387 -22.60564,3.41439c-4.20492,0.52141 -8.14072,-2.37157 -9.20036,-6.30738l0,0c-1.05964,-4.20492 2.10246,-6.82879 5.26456,-9.72177c16.55056,-15.50774 36.26321,-27.85338 43.092,-83.30783c-50.1899,-30.74636 -82.26501,-76.47905 -82.26501,-127.72859c0,-93.0296 105.39206,-168.19672 235.4754,-168.19672s235.4754,75.16711 235.4754,168.19672l0.01682,0z"/>
  </g>
  <ellipse stroke="#000" stroke-width="0" ry="33.88223" rx="33.88223" id="svg_2" cy="341.38539" cx="299.01605" fill="#ffffff"/>
  <ellipse stroke="#000" stroke-width="0" ry="33.88223" rx="33.88223" id="svg_3" cy="341.7928" cx="400.17653" fill="#ffffff"/>
  <ellipse stroke="#000" stroke-width="0" ry="33.88223" rx="33.88223" id="svg_4" cy="341.6323" cx="500.59008" fill="#ffffff"/>
 </g>
</svg>