<svg width="93" height="94" viewBox="0 0 93 94" fill="none" xmlns="http://www.w3.org/2000/svg">
<path d="M91.9051 38.2097C92.4908 41.3478 92.8099 44.6286 92.8099 48.0524C92.8099 74.8326 74.8865 93.875 47.8158 93.875C41.6595 93.8769 35.5633 92.6657 29.8753 90.3107C24.1873 87.9556 19.0191 84.5029 14.666 80.1498C10.3129 75.7967 6.86015 70.6285 4.50512 64.9405C2.1501 59.2525 0.938921 53.1562 0.940798 47C0.938921 40.8438 2.1501 34.7475 4.50512 29.0595C6.86015 23.3715 10.3129 18.2033 14.666 13.8502C19.0191 9.49707 24.1873 6.04435 29.8753 3.68933C35.5633 1.3343 41.6595 0.123125 47.8158 0.125002C60.4726 0.125002 71.0485 4.78203 79.1626 12.3437L65.9487 25.5577V25.5244C61.0297 20.8388 54.787 18.4341 47.8158 18.4341C32.3495 18.4341 19.7784 31.5004 19.7784 46.9714C19.7784 62.4377 32.3495 75.5326 47.8158 75.5326C61.8488 75.5326 71.4009 67.509 73.3628 56.4902H47.8158V38.2097H91.9099H91.9051Z" fill="#FFD012"/>
</svg>
