<svg width="800" height="600" xmlns="http://www.w3.org/2000/svg">

 <g>
  <title>Layer 1</title>
  <ellipse stroke-width="0" ry="229" rx="229" id="svg_1" cy="300" cx="400" stroke="#000" fill="#3b3b3b"/>
  <g stroke-width="0" stroke="null">
   <path stroke="null" fill="#ffd012" d="m541.9015,272.29928c1.84571,9.88904 2.85128,20.22777 2.85128,31.01713c0,84.39198 -56.4817,144.39996 -141.78912,144.39996c-19.40024,0.00599 -38.61109,-3.81085 -56.53559,-11.23212c-17.9245,-7.42159 -34.21095,-18.30202 -47.9288,-32.01987c-13.71785,-13.71785 -24.59844,-30.00431 -32.0198,-47.9288c-7.42133,-17.9245 -11.2381,-37.13566 -11.23218,-56.53559c-0.00592,-19.39993 3.81085,-38.61109 11.23218,-56.53559c7.42137,-17.9245 18.30196,-34.21095 32.0198,-47.9288c13.71785,-13.71794 30.00431,-24.59844 47.9288,-32.01977c17.9245,-7.42137 37.13534,-11.23814 56.53559,-11.23221c39.88515,0 73.2128,14.67562 98.78263,38.50458l-41.64073,41.64105l0,-0.10494c-15.50116,-14.76565 -35.17367,-22.34354 -57.14189,-22.34354c-48.73868,0 -88.35377,41.1756 -88.35377,89.9291c0,48.73868 39.61509,90.00441 88.35377,90.00441c44.22195,0 74.32332,-25.28463 80.50582,-60.00798l-80.50582,0l0,-57.60702l138.95297,0l-0.01513,0z"/>
  </g>
 </g>
</svg>