<?xml version="1.0" encoding="utf-8"?>
<!-- Generator: Adobe Illustrator 23.0.6, SVG Export Plug-In . SVG Version: 6.00 Build 0)  -->
<svg version="1.1" id="Layer_1" xmlns="http://www.w3.org/2000/svg" xmlns:xlink="http://www.w3.org/1999/xlink" x="0px" y="0px"
	 viewBox="0 0 40 40" style="enable-background:new 0 0 40 40;" xml:space="preserve">
<style type="text/css">
	.st0{fill:#EFEFEF;fill-opacity:0;}
	.st1{clip-path:url(#SVGID_2_);}
</style>
<rect x="-1" y="1" class="st0" width="40" height="40"/>
<g>
	<defs>
		<rect id="SVGID_1_" x="8" y="10.5" width="22" height="19"/>
	</defs>
	<clipPath id="SVGID_2_">
		<use xlink:href="#SVGID_1_"  style="overflow:visible;"/>
	</clipPath>
	<g class="st1">
		<path d="M16.3,28.2c0.1-1.4,0.2-2.7,0.3-4.1c0-0.9,0.4-1.4,1-2c2.8-2.5,5.5-5.1,8.2-7.6c0.2-0.1,0.3-0.3,0.5-0.5
			c-0.4-0.3-0.6-0.1-0.9,0.1c-1.5,1-3.1,2-4.6,3c-2.2,1.4-4.4,2.9-6.6,4.3c-0.2,0.1-0.4,0.1-0.6,0.1c-1.5-0.5-3-0.9-4.5-1.4
			C8.5,19.9,8,19.8,8,19.3c0-0.5,0.5-0.7,0.9-0.9c2-0.8,4-1.6,5.9-2.4c4.5-1.8,9-3.6,13.5-5.4c0.1,0,0.1-0.1,0.2-0.1
			c0.9-0.3,1.6,0.1,1.5,1.2c-0.1,0.6-0.2,1.3-0.3,1.9c-1,4.8-2,9.7-3,14.5c0,0.2-0.1,0.3-0.1,0.5c-0.3,0.8-0.8,1-1.5,0.7
			c-0.2-0.1-0.3-0.2-0.5-0.3c-1.5-1.1-2.9-2.2-4.4-3.3c-0.1-0.1-0.2-0.2-0.4-0.3c-0.9,0.8-1.7,1.7-2.5,2.5c-0.2,0.2-0.5,0.3-0.8,0.5
			C16.3,28.3,16.3,28.3,16.3,28.2z"/>
	</g>
</g>
</svg>
