<svg width="800" height="600" xmlns="http://www.w3.org/2000/svg">
 <g id="Layer_1">
  <title>Layer 1</title>
  <ellipse stroke-width="0" stroke="null" ry="299.50005" rx="299" id="svg_1" cy="299.99999" cx="399.99999" fill="#ffd012"/>
  <g stroke-width="0" stroke="null">
   <!--! Font Awesome Pro 6.4.0 by @fontawesome - https://fontawesome.com License - https://fontawesome.com/license (Commercial License) Copyright 2023 Fonticons, Inc. -->
   <path fill="#ffffff" stroke="null" d="m306.10849,469.97643l-70.48693,0l0,-226.98795l70.48693,0l0,226.98795zm-35.28141,-257.9512c-22.53943,0 -40.8214,-18.66902 -40.8214,-41.20844a40.8214,40.8214 0 0 1 81.64281,0c0,22.53943 -18.28957,41.20844 -40.8214,41.20844zm299.09134,257.9512l-70.33515,0l0,-110.49631c0,-26.33394 -0.53123,-60.10513 -36.64744,-60.10513c-36.64744,0 -42.26332,28.61065 -42.26332,58.20788l0,112.39356l-70.41104,0l0,-226.98795l67.6031,0l0,30.96325l0.98657,0c9.4104,-17.83423 32.39758,-36.65502 66.69241,-36.65502c71.3369,0 84.45075,46.97611 84.45075,107.99193l0,124.6878l-0.07589,0z"/>
  </g>
 </g>

</svg>