<svg width="800" height="600" xmlns="http://www.w3.org/2000/svg">
 <g id="Layer_1">
  <title>Layer 1</title>
  <ellipse stroke-width="0" stroke="null" ry="299.50005" rx="300" id="svg_1" cy="299.99999" cx="399.99999" fill="#ffd012"/>
  <g stroke="null">
   <!--! Font Awesome Pro 6.4.0 by @fontawesome - https://fontawesome.com License - https://fontawesome.com/license (Commercial License) Copyright 2023 Fonticons, Inc. -->
   <path stroke="null" fill="#3b3b3b" d="m304.44852,472.99589l-71.73311,0l0,-231.00101l71.73311,0l0,231.00101zm-35.90517,-262.51168c-22.93791,0 -41.54311,-18.99908 -41.54311,-41.93699a41.54311,41.54311 0 0 1 83.08622,0c0,22.93791 -18.61292,41.93699 -41.54311,41.93699zm304.37917,262.51168l-71.57865,0l0,-112.44984c0,-26.79952 -0.54062,-61.16777 -37.29535,-61.16777c-37.29535,0 -43.01052,29.11648 -43.01052,59.23697l0,114.38064l-71.65588,0l0,-231.00101l68.7983,0l0,31.51067l1.00402,0c9.57677,-18.14953 32.97036,-37.30307 67.87151,-37.30307c72.59811,0 85.94381,47.80663 85.94381,109.90118l0,126.89223l-0.07723,0z"/>
  </g>
 </g>

</svg>