<svg width="40" height="40" xmlns="http://www.w3.org/2000/svg" xmlns:xlink="http://www.w3.org/1999/xlink" xml:space="preserve" version="1.1">
 <g>
  <title>Layer 1</title>
  <rect id="svg_1" fill-opacity="0" fill="#EFEFEF" height="40" width="40" class="st0" y="1" x="-1"/>
  <ellipse stroke="#000" stroke-width="0" ry="18.88889" rx="18.88889" id="svg_13" cy="20" cx="20" fill="#ffd012"/>
  <g stroke="null" id="svg_2">
   <defs transform="translate(8 29.4324) scale(0.909775 0.909775) translate(-8 -29.4324)" stroke="null" id="svg_15">
    <rect stroke="null" height="19" width="22" y="10.5" x="8" id="svg_14"/>
   </defs>
   <clipPath transform="translate(8 29.4324) scale(0.909775 0.909775) translate(-8 -29.4324)" stroke="null" id="svg_17">
    <use stroke="null" id="svg_16" xlink:href="#SVGID_1_"/>
   </clipPath>
   <g stroke="null" id="svg_19" clip-path="url(#SVGID_2_)" class="st1">
    <path stroke="null" id="svg_18" d="m15.55113,28.31119c0.09098,-1.27368 0.18195,-2.45639 0.27293,-3.73008c0,-0.8188 0.36391,-1.27368 0.90977,-1.81955c2.54737,-2.27444 5.00376,-4.63985 7.46015,-6.91429c0.18195,-0.09098 0.27293,-0.27293 0.45489,-0.45489c-0.36391,-0.27293 -0.54586,-0.09098 -0.8188,0.09098c-1.36466,0.90977 -2.8203,1.81955 -4.18496,2.72932c-2.0015,1.27368 -4.00301,2.63835 -6.00451,3.91203c-0.18195,0.09098 -0.36391,0.09098 -0.54586,0.09098c-1.36466,-0.45489 -2.72932,-0.8188 -4.09399,-1.27368c-0.54586,-0.18195 -1.00075,-0.27293 -1.00075,-0.72782c0,-0.45489 0.45489,-0.63684 0.8188,-0.8188c1.81955,-0.72782 3.6391,-1.45564 5.36767,-2.18346c4.09399,-1.63759 8.18797,-3.27519 12.28196,-4.91278c0.09098,0 0.09098,-0.09098 0.18195,-0.09098c0.8188,-0.27293 1.45564,0.09098 1.36466,1.09173c-0.09098,0.54586 -0.18195,1.18271 -0.27293,1.72857c-0.90977,4.36692 -1.81955,8.82481 -2.72932,13.19173c0,0.18195 -0.09098,0.27293 -0.09098,0.45489c-0.27293,0.72782 -0.72782,0.90977 -1.36466,0.63684c-0.18195,-0.09098 -0.27293,-0.18195 -0.45489,-0.27293c-1.36466,-1.00075 -2.63835,-2.0015 -4.00301,-3.00226c-0.09098,-0.09098 -0.18195,-0.18195 -0.36391,-0.27293c-0.8188,0.72782 -1.54662,1.54662 -2.27444,2.27444c-0.18195,0.18195 -0.45489,0.27293 -0.72782,0.45489c-0.18195,-0.09098 -0.18195,-0.09098 -0.18195,-0.18195z"/>
   </g>
  </g>
 </g>
</svg>