<svg width="800" height="600" xmlns="http://www.w3.org/2000/svg">
 <g id="Layer_1">
  <title>Layer 1</title>
  <ellipse stroke-width="0" stroke="null" ry="299.50005" rx="300" id="svg_1" cy="299.99999" cx="399.99999" fill="#cca60e"/>
  <g stroke="null">
   <!--! Font Awesome Pro 6.4.0 by @fontawesome - https://fontawesome.com License - https://fontawesome.com/license (Commercial License) Copyright 2023 Fonticons, Inc. -->
   <path fill="#3b3b3b" stroke="null" d="m543.62318,226.35296c0.22952,3.21186 0.22952,6.42442 0.22952,9.63627c0,97.96582 -74.56405,210.84544 -210.84544,210.84544c-41.98576,0 -80.98847,-12.16028 -113.79699,-33.26685c5.96538,0.68785 11.70053,0.91737 17.89543,0.91737c34.64326,0 66.53441,-11.70053 92.00115,-31.66093c-32.579,-0.68856 -59.88119,-22.02536 -69.28794,-51.39251c4.58897,0.68785 9.17723,1.14689 13.99572,1.14689c6.65323,0 13.30717,-0.91808 19.50136,-2.5233c-33.95541,-6.88345 -59.42285,-36.70893 -59.42285,-72.72931l0,-0.91737c9.86508,5.50634 21.33751,8.94771 33.49637,9.40605c-19.9604,-13.30717 -33.03734,-36.02038 -33.03734,-61.71663c0,-13.7655 3.67019,-26.38411 10.0946,-37.39679c36.47942,44.96809 91.3133,74.33453 152.79971,77.5471c-1.14689,-5.50634 -1.83545,-11.24149 -1.83545,-16.97735c0,-40.83887 33.03804,-74.10572 74.10572,-74.10572c21.3368,0 40.60864,8.94771 54.14533,23.40177c16.74783,-3.21186 32.80782,-9.40675 47.03306,-17.89543c-5.50705,17.20758 -17.20758,31.66163 -32.579,40.83816c14.91309,-1.60522 29.36715,-5.73586 42.67361,-11.47101c-10.09319,14.68287 -22.71251,27.75981 -37.16656,38.31416z"/>
  </g>
 </g>

</svg>