<svg width="800" height="600" xmlns="http://www.w3.org/2000/svg">
 <g id="Layer_1">
  <title>Layer 1</title>
  <ellipse stroke-width="0" stroke="null" ry="299.50005" rx="299" id="svg_1" cy="299.99999" cx="399.99999" fill="#3b3b3b"/>
  <g stroke-width="0" stroke="null">
   <!--! Font Awesome Pro 6.4.0 by @fontawesome - https://fontawesome.com License - https://fontawesome.com/license (Commercial License) Copyright 2023 Fonticons, Inc. -->
   <path fill="#ffffff" stroke="null" d="m557.91645,126.84536c-10.66627,-9.82641 -53.83528,-41.15333 -150.08368,-41.57326c0,0 -113.46562,-6.8029 -168.72866,43.92488c-30.73902,30.73902 -41.57326,75.83971 -42.74907,131.69066c-1.17581,55.85095 -2.60358,160.49799 98.26408,188.88539l0.08399,0l-0.08399,43.33698s-0.67189,17.55316 10.91823,21.08058c13.94174,4.36729 22.17241,-8.98654 35.52624,-23.34822c7.30682,-7.89472 17.38518,-19.48484 25.02794,-28.30341c69.03681,5.79506 122.03223,-7.47479 128.07925,-9.40648c13.94174,-4.53527 92.80496,-14.61363 105.57089,-119.26068c13.26985,-108.0065 -6.38297,-176.20345 -41.82522,-207.02646zm11.67411,199.13173c-10.83424,87.34585 -74.74789,92.88895 -86.50598,96.66834c-5.03918,1.59574 -51.65163,13.18586 -110.19015,9.40648c0,0 -43.67292,52.65947 -57.27872,66.34925c-4.45128,4.45128 -9.32249,4.03135 -9.2385,-4.78722c0,-5.79506 0.33595,-71.97634 0.33595,-71.97634c-0.08399,0 -0.08399,0 0,0c-85.49815,-23.68416 -80.45896,-112.79372 -79.53511,-159.40617c0.92385,-46.61245 9.74242,-84.82626 35.7782,-110.52609c46.78042,-42.41313 143.11281,-36.11415 143.11281,-36.11415c81.38281,0.33595 120.3525,24.85997 129.42303,33.09064c29.98314,25.69984 45.26867,87.17787 34.09848,177.29527zm-116.74108,-67.861c0.33595,7.22283 -10.4983,7.72675 -10.83424,0.50392c-0.92385,-18.47701 -9.57445,-27.46355 -27.37956,-28.47139c-7.22283,-0.41993 -6.55094,-11.25418 0.5879,-10.83424c23.4322,1.2598 36.45009,14.69762 37.6259,38.80171zm17.04924,9.49046c0.83986,-35.61023 -21.41653,-63.49371 -63.66168,-66.60121c-7.13884,-0.50392 -6.38297,-11.33816 0.75588,-10.83424c48.71211,3.52743 74.6639,37.038 73.74005,77.68741c-0.08399,7.22283 -11.00222,6.88688 -10.83424,-0.25196zm39.4736,11.25418c0.08399,7.22283 -10.83424,7.30682 -10.83424,0.08399c-0.50392,-68.44891 -46.10853,-105.73887 -101.45556,-106.1588c-7.13884,-0.08399 -7.13884,-10.83424 0,-10.83424c61.89797,0.41993 111.7019,43.16901 112.28981,116.90906zm-9.49046,82.39065l0,0.16797c-9.07053,15.95741 -26.03578,33.59456 -43.50495,27.96747l-0.16797,-0.25196c-17.72113,-4.9552 -59.46237,-26.45571 -85.83409,-47.45231c-13.6058,-10.75026 -26.03578,-23.4322 -35.61023,-35.61023c-8.6506,-10.83424 -17.38518,-23.68416 -25.86781,-39.13766c-17.8891,-32.33476 -21.83646,-46.78042 -21.83646,-46.78042c-5.62709,-17.46917 11.92607,-34.43442 27.96747,-43.50495l0.16797,0c7.72675,-4.03135 15.11755,-2.68756 20.07275,3.27547c0,0 10.41431,12.42999 14.86559,18.56099c4.19932,5.71107 9.82641,14.86559 12.76593,19.98876c5.12317,9.15452 1.93169,18.47701 -3.1075,22.34038l-10.07837,8.06269c-5.12317,4.11533 -4.45128,11.75809 -4.45128,11.75809s14.94958,56.52284 70.80053,70.80053c0,0 7.64276,0.67189 11.75809,-4.45128l8.06269,-10.07837c3.86337,-5.03918 13.18586,-8.23067 22.34038,-3.1075c12.346,6.97087 28.05145,17.80512 38.46577,27.63152c5.87905,4.78722 7.22283,12.09404 3.19148,19.82079z"/>
  </g>
 </g>

</svg>