<svg width="800" height="600" xmlns="http://www.w3.org/2000/svg">
 <g id="Layer_1">
  <title>Layer 1</title>
  <ellipse stroke-width="0" stroke="null" ry="299.50005" rx="300" id="svg_1" cy="299.99999" cx="399.99999" fill="#cca60e"/>
  <g stroke="null">
   <!--! Font Awesome Pro 6.4.0 by @fontawesome - https://fontawesome.com License - https://fontawesome.com/license (Commercial License) Copyright 2023 Fonticons, Inc. -->
   <path stroke="null" fill="#3b3b3b" d="m557.36192,127.45336c-10.62882,-9.7919 -53.64624,-41.00883 -149.55668,-41.42728c0,0 -113.06719,-6.77901 -168.13619,43.77065c-30.63108,30.63108 -41.42728,75.57341 -42.59896,131.22824c-1.17168,55.65484 -2.59444,159.93442 97.91903,188.22214l0.08369,0l-0.08369,43.18481s-0.66953,17.49152 10.87989,21.00656c13.89279,4.35196 22.09455,-8.95499 35.4015,-23.26623c7.28116,-7.867 17.32414,-19.41642 24.94006,-28.20403c68.7944,5.77471 121.60372,-7.44854 127.62951,-9.37345c13.89279,-4.51934 92.47909,-14.56232 105.20019,-118.84191c13.22325,-107.62725 -6.36055,-175.58473 -41.67836,-206.2995zm11.63312,198.43251c-10.7962,87.03914 -74.48542,92.56278 -86.20223,96.3289c-5.02149,1.59014 -51.47026,13.13956 -109.80323,9.37345c0,0 -43.51957,52.47456 -57.07759,66.11627c-4.43565,4.43565 -9.28975,4.01719 -9.20606,-4.77041c0,-5.77471 0.33477,-71.7236 0.33477,-71.7236c-0.08369,0 -0.08369,0 0,0c-85.19793,-23.601 -80.17644,-112.39766 -79.25583,-158.84643c0.92061,-46.44877 9.70821,-84.5284 35.65257,-110.13799c46.61616,-42.2642 142.61029,-35.98734 142.61029,-35.98734c81.09705,0.33477 119.92989,24.77268 128.96857,32.97444c29.87786,25.60959 45.10971,86.87176 33.97874,176.67272zm-116.33116,-67.62272c0.33477,7.19747 -10.46144,7.69962 -10.7962,0.50215c-0.92061,-18.41213 -9.54083,-27.36711 -27.28342,-28.37141c-7.19747,-0.41846 -6.52794,-11.21466 0.58584,-10.7962c23.34992,1.25537 36.3221,14.64601 37.49378,38.66546zm16.98937,9.45714c0.83691,-35.48519 -21.34133,-63.27076 -63.43814,-66.36735c-7.11378,-0.50215 -6.36055,-11.29835 0.75322,-10.7962c48.54106,3.51504 74.40173,36.90794 73.48112,77.41462c-0.08369,7.19747 -10.96358,6.8627 -10.7962,-0.25107zm39.335,11.21466c0.08369,7.19747 -10.7962,7.28116 -10.7962,0.08369c-0.50215,-68.20856 -45.94662,-105.36758 -101.09931,-105.78603c-7.11378,-0.08369 -7.11378,-10.7962 0,-10.7962c61.68062,0.41846 111.30967,43.01742 111.89551,116.49854zm-9.45714,82.10134l0,0.16738c-9.03868,15.90138 -25.94436,33.47659 -43.35219,27.86926l-0.16738,-0.25107c-17.6589,-4.9378 -59.25357,-26.36282 -85.5327,-47.28569c-13.55802,-10.71251 -25.94436,-23.34992 -35.48519,-35.48519c-8.62022,-10.7962 -17.32414,-23.601 -25.77698,-39.00023c-17.82629,-32.22122 -21.75979,-46.61616 -21.75979,-46.61616c-5.60733,-17.40783 11.88419,-34.31351 27.86926,-43.35219l0.16738,0c7.69962,-4.01719 15.06447,-2.67813 20.00226,3.26397c0,0 10.37774,12.38634 14.81339,18.49582c4.18457,5.69102 9.7919,14.81339 12.72111,19.91857c5.10518,9.12237 1.9249,18.41213 -3.09658,22.26193l-10.04298,8.03438c-5.10518,4.10088 -4.43565,11.71681 -4.43565,11.71681s14.89708,56.32437 70.55192,70.55192c0,0 7.61592,0.66953 11.71681,-4.43565l8.03438,-10.04298c3.84981,-5.02149 13.13956,-8.20177 22.26193,-3.09658c12.30265,6.94639 27.95296,17.74259 38.3307,27.5345c5.8584,4.77041 7.19747,12.05157 3.18028,19.75119z"/>
  </g>
 </g>

</svg>