<svg width="800" height="600" xmlns="http://www.w3.org/2000/svg">
 <g id="Layer_1">
  <title>Layer 1</title>
  <ellipse stroke-width="0" stroke="null" ry="299.50005" rx="300" id="svg_1" cy="299.99999" cx="399.99999" fill="#000000"/>
  <g stroke-width="0" stroke="null">
   <!--! Font Awesome Pro 6.4.0 by @fontawesome - https://fontawesome.com License - https://fontawesome.com/license (Commercial License) Copyright 2023 Fonticons, Inc. -->
   <path stroke="null" fill="#ffffff" d="m530.63327,167.70155c-34.88549,-34.96875 -81.34398,-54.20156 -130.71652,-54.20156c-101.90893,0 -184.83483,82.9259 -184.83483,184.83483c0,32.55424 8.49241,64.35915 24.64464,92.41741l-26.22656,95.74777l97.99576,-25.72701c26.97589,14.73683 57.3654,22.47991 88.33773,22.47991l0.08326,0c101.82567,0 186.58327,-82.9259 186.58327,-184.83483c0,-49.37255 -20.98125,-95.74777 -55.86674,-130.71652zm-130.71652,284.41251c-27.64197,0 -54.70112,-7.41004 -78.2634,-21.39755l-5.57835,-3.33036l-58.11473,15.23638l15.48616,-56.69933l-3.66339,-5.82813c-15.4029,-24.47813 -23.47902,-52.7029 -23.47902,-81.76027c0,-84.67433 68.9384,-153.61273 153.69599,-153.61273c41.04665,0 79.59554,15.98572 108.56965,45.04308c28.97411,29.05737 46.79152,67.60625 46.70826,108.65291c0,84.75759 -70.68683,153.69599 -155.36117,153.69599zm84.25804,-115.06384c-4.57924,-2.33125 -27.30893,-13.48795 -31.55514,-14.98661c-4.24621,-1.58192 -7.32679,-2.33125 -10.40737,2.33125c-3.08058,4.6625 -11.90603,14.98661 -14.65357,18.15045c-2.66429,3.08058 -5.41183,3.49688 -9.99107,1.16563c-27.14241,-13.57121 -44.95982,-24.22835 -62.86049,-54.9509c-4.74576,-8.15938 4.74576,-7.57656 13.57121,-25.22746c1.49866,-3.08058 0.74933,-5.74487 -0.41629,-8.07612c-1.16563,-2.33125 -10.40737,-25.06094 -14.23728,-34.30268c-3.74665,-8.99196 -7.57656,-7.74308 -10.40737,-7.9096c-2.66429,-0.16652 -5.74487,-0.16652 -8.82545,-0.16652c-3.08058,0 -8.07612,1.16563 -12.32232,5.74487c-4.24621,4.6625 -16.15223,15.8192 -16.15223,38.54889c0,22.72969 16.56853,44.71005 18.81652,47.79063c2.33125,3.08058 32.55424,49.70558 78.92947,69.77099c29.30714,12.65536 40.79688,13.73772 55.45045,11.57299c8.90871,-1.33214 27.30893,-11.1567 31.13884,-21.98036c3.82991,-10.82366 3.82991,-20.0654 2.66429,-21.98036c-1.08237,-2.08147 -4.16295,-3.2471 -8.74219,-5.49509z"/>
  </g>
 </g>

</svg>