<svg width="284" height="50" viewBox="0 0 284 50" fill="none" xmlns="http://www.w3.org/2000/svg">
<path fill-rule="evenodd" clip-rule="evenodd" d="M0 25V50H142H284V25V0H142H0V25ZM280.151 4.9605C280.911 5.3515 281.646 6.139 281.784 6.7105C281.923 7.2825 281.973 15.601 281.897 25.196L281.758 42.6425L280.351 43.696L278.944 44.75H146.074C72.9955 44.75 12.6026 44.581 11.8682 44.374C8.8902 43.5365 8.96842 44.0715 8.96842 24.5C8.96842 4.921 8.90415 5.3605 11.8682 4.707C12.6026 4.545 13.4277 4.3365 13.7018 4.2435C13.9758 4.1505 73.7279 4.1135 146.484 4.162C259.717 4.2375 278.967 4.3525 280.151 4.9605ZM61.7825 7.7275C59.7272 8.3895 56.7562 9.3 55.1807 9.751L52.3158 10.571L52.3173 21.1605L52.3188 31.75L63.1541 36.876C69.1136 39.6955 74.3377 42.002 74.7632 42.001C75.1888 42.0005 76.4927 41.2945 77.6605 40.4325C79.2445 39.264 79.9281 39.0095 80.3496 39.4325C80.6605 39.7445 81.4477 40 82.0984 40C83.1178 40 83.2603 39.7905 83.1243 38.49C83.0047 37.346 83.2912 36.7095 84.3056 35.865C85.3739 34.976 85.6773 34.2435 85.8034 32.25C85.9409 30.081 86.1128 29.7285 87.1043 29.5865C88.0614 29.4495 88.2219 29.165 88.0938 27.8365C87.9772 26.63 87.6718 26.2115 86.8193 26.09C85.5817 25.914 85.3624 25.037 86.3171 24.079C86.8093 23.585 86.7964 23.372 86.2533 23.035C85.4511 22.5375 85.9379 21.5 86.9733 21.5C87.4067 21.5 87.6912 21.005 87.6912 20.25C87.6912 19.3045 87.4182 18.9855 86.5702 18.941C85.7027 18.895 85.7874 18.809 86.9439 18.561C88.2582 18.279 88.4386 18.0295 88.4386 16.495C88.4386 14.963 88.2712 14.7305 87.0684 14.592C85.8756 14.454 85.6982 14.2155 85.6982 12.7465C85.6982 10.7815 84.8134 9.9865 83.9484 11.1735C83.1971 12.2045 82.2105 12.248 82.2105 11.25C82.2105 10.6205 81.1343 10.5 75.5141 10.5H68.8182L68.6632 8.625C68.5242 6.9395 68.3573 6.7385 67.014 6.637C66.1919 6.5745 63.8377 7.0655 61.7825 7.7275ZM95.1649 11.25C95.1649 11.6625 95.3891 12 95.6632 12C95.9372 12 96.1614 11.6625 96.1614 11.25C96.1614 10.8375 95.9372 10.5 95.6632 10.5C95.3891 10.5 95.1649 10.8375 95.1649 11.25ZM105.13 11.9505C105.13 12.857 105.388 13.5 105.753 13.4995C106.217 13.499 106.375 15.057 106.375 19.6245V25.75L107.995 25.9065L109.614 26.0635V23.5315C109.614 21.2075 109.71 21 110.785 21C112.75 21 114.987 19.9895 115.809 18.73C117.008 16.895 116.81 13.813 115.387 12.153C114.261 10.8385 113.9 10.739 109.657 10.5755L105.13 10.4005V11.9505ZM128.547 12C128.547 12.8735 128.81 13.5 129.176 13.5C129.645 13.5 129.792 14.859 129.758 18.875C129.732 21.8315 129.906 24.644 130.143 25.125C130.431 25.7065 131.154 26 132.302 26C133.888 26 134.028 25.878 134.028 24.5C134.028 23.675 133.804 23 133.53 23C133.227 23 133.032 20.7835 133.032 17.35C133.032 11.0955 132.784 10.5 130.192 10.5C128.697 10.5 128.547 10.6365 128.547 12ZM165.916 12C165.916 13 166.165 13.5 166.663 13.5C167.083 13.5 167.411 13.9465 167.411 14.5175C167.411 15.3685 167.253 15.4505 166.447 15.0175C164.847 14.1585 163.087 14.429 161.487 15.78C159.673 17.3115 159.145 19.547 159.916 22.4215C160.633 25.0945 162.252 26.2185 164.791 25.806C165.821 25.6385 166.887 25.5105 167.161 25.522C167.435 25.533 168.556 25.589 169.653 25.646C171.379 25.736 171.667 25.599 171.805 24.623C171.901 23.9465 171.652 23.375 171.182 23.1945C170.536 22.9455 170.4 21.921 170.4 17.2965C170.4 11.0995 170.149 10.5 167.56 10.5C166.065 10.5 165.916 10.6365 165.916 12ZM180.199 10.8335C179.633 11.4005 179.833 12.9295 180.526 13.35C180.89 13.57 181.842 16.45 182.644 19.75L184.102 25.75L185.904 25.901C187.646 26.0475 187.727 25.979 188.282 23.901C188.598 22.718 189.16 20.625 189.532 19.25L190.208 16.75L190.797 19C192.678 26.1865 192.449 25.75 194.322 25.75H196.038L197.644 19.758C198.527 16.4625 199.485 13.6875 199.773 13.5915C200.06 13.4955 200.295 12.7605 200.295 11.9585C200.295 10.679 200.115 10.5 198.835 10.5C197.312 10.5 195.811 11.6045 195.811 12.7245C195.811 13.0835 195.436 15.036 194.979 17.0635L194.148 20.75L192.861 15.75C191.677 11.145 191.474 10.738 190.291 10.6C188.934 10.4415 188.649 11.086 186.788 18.5L186.223 20.75L185.095 16.065C184.475 13.4885 183.661 11.1855 183.287 10.948C182.476 10.432 180.665 10.365 180.199 10.8335ZM220.225 12C220.225 13 220.474 13.5 220.972 13.5C221.596 13.5 221.719 14.528 221.719 19.75V26H223.214C224.683 26 224.709 25.9545 224.725 23.375C224.742 20.811 224.762 20.775 225.597 21.82C226.067 22.409 226.835 23.59 227.301 24.445C227.964 25.6585 228.484 26 229.668 26C231.023 26 231.186 25.8385 231.186 24.5C231.186 23.635 230.922 22.9985 230.563 22.997C230.221 22.995 229.546 22.299 229.065 21.45C228.197 19.92 228.202 19.886 229.695 17.667C230.523 16.4355 231.084 15.2395 230.942 15.0085C230.697 14.61 228.327 14.6505 228.019 15.058C227.939 15.1635 227.37 15.981 226.756 16.875C226.141 17.769 225.428 18.5 225.173 18.5C224.918 18.5 224.709 16.97 224.709 15.1C224.709 11.2455 224.248 10.5 221.869 10.5C220.374 10.5 220.225 10.6365 220.225 12ZM86.6947 12.5C86.6947 13.7665 86.8886 14 87.9404 14C88.9921 14 89.186 13.7665 89.186 12.5C89.186 11.2335 88.9921 11 87.9404 11C86.8886 11 86.6947 11.2335 86.6947 12.5ZM79.2211 14C79.2211 14.275 78.9834 14.5 78.6934 14.5C78.4034 14.5 78.3043 14.275 78.4737 14C78.6431 13.725 78.8803 13.5 79.0013 13.5C79.1224 13.5 79.2211 13.725 79.2211 14ZM90.1825 15C90.1825 16.2665 90.3763 16.5 91.4281 16.5C92.4799 16.5 92.6737 16.2665 92.6737 15C92.6737 13.7335 92.4799 13.5 91.4281 13.5C90.3763 13.5 90.1825 13.7335 90.1825 15ZM113.002 14.1C113.331 14.43 113.6 15.1725 113.6 15.75C113.6 17.1915 112.669 18 111.009 18C109.688 18 109.614 17.881 109.614 15.75C109.614 13.619 109.688 13.5 111.009 13.5C111.776 13.5 112.673 13.77 113.002 14.1ZM71.7474 15C71.7474 15.275 71.5232 15.5 71.2491 15.5C70.9751 15.5 70.7509 15.275 70.7509 15C70.7509 14.725 70.9751 14.5 71.2491 14.5C71.5232 14.5 71.7474 14.725 71.7474 15ZM94.6667 15.5C94.6667 16.1665 94.999 16.5 95.6632 16.5C96.3273 16.5 96.6597 16.1665 96.6597 15.5C96.6597 14.8335 96.3273 14.5 95.6632 14.5C94.999 14.5 94.6667 14.8335 94.6667 15.5ZM120.285 14.9845C118.598 15.6695 116.589 18.43 116.589 20.063C116.589 24.815 121.773 27.55 125.944 24.998C129.65 22.73 129.328 17.1975 125.38 15.3175C123.517 14.43 121.91 14.325 120.285 14.9845ZM136.547 15.4725C135.95 16.0715 135.534 16.9415 135.622 17.4055C135.842 18.566 137.945 18.7855 138.715 17.729C139.443 16.7305 141.502 17.141 141.502 18.2835C141.502 18.782 140.915 19 139.576 19C135.739 19 133.615 22.585 136.021 25C137.126 26.109 139.954 26.3535 140.883 25.421C141.319 24.983 141.639 24.9915 142.198 25.4575C143.402 26.46 145.71 25.9395 145.896 24.623C145.992 23.9465 145.743 23.375 145.273 23.1945C144.688 22.9685 144.491 22.168 144.491 20.002C144.491 16.13 143.543 14.954 140.158 14.6275C138.033 14.4225 137.459 14.557 136.547 15.4725ZM146.59 14.8815C145.701 15.1785 145.829 17.5 146.733 17.5C147.34 17.5 147.481 18.309 147.481 21.783V26.0665L148.851 25.908C150.162 25.757 150.232 25.607 150.47 22.45C150.743 18.8425 151.561 17.3705 153.167 17.601C154.09 17.7335 154.224 18.14 154.356 21.229C154.439 23.1425 154.747 24.999 155.041 25.354C155.334 25.7095 156.332 26 157.257 26C158.795 26 158.94 25.8705 158.94 24.5C158.94 23.675 158.747 23 158.51 23C158.274 23 157.959 21.49 157.812 19.6445C157.599 16.9855 157.315 16.103 156.443 15.3945C155.12 14.3195 153.012 14.2375 151.688 15.2085C151.157 15.5985 150.497 15.741 150.223 15.526C149.571 15.0155 147.361 14.6235 146.59 14.8815ZM202.444 15.446C200.421 16.721 199.796 17.917 199.796 20.517C199.796 22.219 200.106 22.911 201.491 24.3C202.918 25.732 203.539 26 205.438 26C209.427 26 212.433 22.329 211.29 18.853C210.041 15.057 205.709 13.388 202.444 15.446ZM212.602 14.816C212.078 15.342 212.181 17.5 212.731 17.5C212.994 17.5 213.274 19.356 213.354 21.625L213.498 25.75H214.993C216.485 25.75 216.488 25.7445 216.737 22.3015C216.986 18.844 217.205 18.4675 219.353 17.802C220.311 17.5045 220.567 15.2715 219.704 14.7365C219.418 14.559 218.605 14.7945 217.898 15.2595C217.119 15.7715 216.489 15.912 216.3 15.6155C215.895 14.9765 213.054 14.3625 212.602 14.816ZM82.9579 17.25C82.9579 18.268 82.7138 18.5 81.6405 18.5C80.5484 18.5 80.3351 18.2865 80.3949 17.2505C80.4512 16.27 80.7352 16.0005 81.7123 16.0005C82.7088 16 82.9579 16.25 82.9579 17.25ZM78.6291 17.3695C78.379 18.6725 76.7298 18.818 76.7298 17.5365C76.7298 16.821 77.0497 16.5 77.7627 16.5C78.4757 16.5 78.7442 16.7695 78.6291 17.3695ZM97.6561 17.7085C97.6561 18.144 98.0114 18.5 98.4449 18.5C98.8788 18.5 99.1454 18.233 99.0368 17.9065C98.7289 16.979 97.6561 16.8255 97.6561 17.7085ZM124.854 18.7465C125.85 20.2715 125.46 22.2495 124.011 23.028C121.034 24.6265 118.55 20.9315 120.714 18.125C121.565 17.021 123.962 17.3805 124.854 18.7465ZM166.895 18.467C167.662 19.906 167.523 21.2495 166.472 22.5515C165.645 23.5775 165.382 23.644 164.23 23.1175C163.114 22.6075 162.926 22.2075 162.926 20.344C162.926 19.1465 163.076 18.0165 163.259 17.8335C163.986 17.1035 166.391 17.5225 166.895 18.467ZM207.669 18.1C207.998 18.43 208.267 19.4375 208.267 20.3385C208.267 21.5535 207.93 22.1985 206.964 22.8335C205.796 23.601 205.524 23.6135 204.348 22.9545C202.881 22.132 202.401 20.1565 203.271 18.5245C203.892 17.361 206.665 17.093 207.669 18.1ZM91.2706 19.375C91.3957 20.466 91.6852 20.75 92.6737 20.75C93.6622 20.75 93.9517 20.466 94.0767 19.375C94.2192 18.134 94.0827 18 92.6737 18C91.2646 18 91.1281 18.134 91.2706 19.375ZM173.161 18.3965C173.012 18.545 172.891 19.1915 172.891 19.8335C172.891 20.937 173.068 21 176.163 21H179.435L179.277 19.625C179.126 18.3125 178.99 18.247 176.275 18.188C174.71 18.154 173.309 18.2475 173.161 18.3965ZM68.7579 19.25C68.7579 19.6625 68.4216 20 68.0105 20C67.5995 20 67.2632 19.6625 67.2632 19.25C67.2632 18.8375 67.5995 18.5 68.0105 18.5C68.4216 18.5 68.7579 18.8375 68.7579 19.25ZM88.7834 19.5375C88.8815 19.833 89.175 20.075 89.4351 20.075C89.6952 20.075 89.9886 19.833 90.0868 19.5375C90.185 19.242 89.892 19 89.4351 19C88.9782 19 88.6852 19.242 88.7834 19.5375ZM63.7754 20.25C63.7754 20.6625 63.4391 21 63.0281 21C62.2498 21 62.0396 20.4085 62.613 19.8335C63.186 19.258 63.7754 19.469 63.7754 20.25ZM95.4833 19.847C94.9223 20.41 95.142 21 95.9123 21C96.3233 21 96.6597 20.7885 96.6597 20.5295C96.6597 19.899 95.8814 19.4475 95.4833 19.847ZM84.2035 21.75C84.2035 22.6665 83.9379 23 83.207 23C82.4761 23 82.2105 22.6665 82.2105 21.75C82.2105 20.8335 82.4761 20.5 83.207 20.5C83.9379 20.5 84.2035 20.8335 84.2035 21.75ZM77.7263 22C77.7263 22.5555 77.394 23 76.979 23C76.5639 23 76.2316 22.5555 76.2316 22C76.2316 21.4445 76.5639 21 76.979 21C77.394 21 77.7263 21.4445 77.7263 22ZM88.047 21.3095C87.2697 22.09 87.6982 24.0955 88.6982 24.358C89.4849 24.5645 89.5816 24.7715 89.1406 25.3045C88.4147 26.1825 88.9149 27.5 89.9742 27.5C90.599 27.5 90.7425 27.148 90.5771 26.019C90.4366 25.056 90.6025 24.4455 91.0524 24.272C91.4714 24.1105 91.6817 23.4625 91.586 22.628C91.457 21.502 91.1516 21.223 89.9154 21.1015C89.0833 21.0195 88.2428 21.1135 88.047 21.3095ZM141.502 21.65C141.502 22.568 140.462 23.5 139.439 23.5C138.255 23.5 137.8 22.6115 138.53 21.728C139.278 20.8245 141.502 20.766 141.502 21.65ZM93.006 22.3335C92.3199 23.0215 92.7101 24 93.6702 24C94.3343 24 94.6667 23.6665 94.6667 23C94.6667 22.0365 93.6916 21.645 93.006 22.3335ZM74.2386 23.5C74.2386 23.775 74.0144 24 73.7404 24C73.4663 24 73.2421 23.775 73.2421 23.5C73.2421 23.225 73.4663 23 73.7404 23C74.0144 23 74.2386 23.225 74.2386 23.5ZM80.4667 23.5C80.6361 23.775 80.5369 24 80.2469 24C79.957 24 79.7193 23.775 79.7193 23.5C79.7193 23.225 79.8179 23 79.939 23C80.0601 23 80.2973 23.225 80.4667 23.5ZM97.1579 23.75C97.1579 24.1625 97.3821 24.5 97.6561 24.5C97.9302 24.5 98.1544 24.1625 98.1544 23.75C98.1544 23.3375 97.9302 23 97.6561 23C97.3821 23 97.1579 23.3375 97.1579 23.75ZM95.1649 26.5365C95.1649 27.818 96.8141 27.6725 97.0642 26.3695C97.1793 25.7695 96.9108 25.5 96.1978 25.5C95.4848 25.5 95.1649 25.821 95.1649 26.5365ZM76.7298 26.5C76.7298 26.775 76.5056 27 76.2316 27C75.9575 27 75.7333 26.775 75.7333 26.5C75.7333 26.225 75.9575 26 76.2316 26C76.5056 26 76.7298 26.225 76.7298 26.5ZM81.7123 27.25C81.7123 28.25 81.4632 28.5 80.4667 28.5C79.4702 28.5 79.2211 28.25 79.2211 27.25C79.2211 26.25 79.4702 26 80.4667 26C81.4632 26 81.7123 26.25 81.7123 27.25ZM99.1509 26.75C99.1509 27.2085 99.392 27.5025 99.6865 27.404C99.981 27.3055 100.222 27.0115 100.222 26.75C100.222 26.4885 99.981 26.1945 99.6865 26.096C99.392 25.9975 99.1509 26.2915 99.1509 26.75ZM91.6772 27.717C91.6772 28.6725 91.9712 28.9675 93.0474 29.092C94.0319 29.2055 94.3762 29.496 94.2711 30.125C94.1844 30.644 94.438 31 94.8939 31C95.8809 31 95.8978 29.6975 94.9158 29.319C94.5047 29.161 94.1684 28.462 94.1684 27.7655C94.1684 26.749 93.9233 26.5 92.9228 26.5C91.9353 26.5 91.6772 26.752 91.6772 27.717ZM84.7018 29.5C84.7018 30.0555 84.3694 30.5 83.9544 30.5C83.5394 30.5 83.207 30.0555 83.207 29.5C83.207 28.9445 83.5394 28.5 83.9544 28.5C84.3694 28.5 84.7018 28.9445 84.7018 29.5ZM89.4351 29C89.2657 29.275 89.4769 29.5 89.9039 29.5C90.3309 29.5 90.6807 29.275 90.6807 29C90.6807 28.725 90.4699 28.5 90.2119 28.5C89.9538 28.5 89.6045 28.725 89.4351 29ZM145.488 29.5415C145.488 30.76 146.652 30.588 146.894 29.3335C146.99 28.84 146.736 28.5 146.271 28.5C145.81 28.5 145.488 28.9275 145.488 29.5415ZM78.2246 30.25C78.2246 30.6665 77.7816 31 77.2281 31C76.6745 31 76.2316 30.6665 76.2316 30.25C76.2316 29.8335 76.6745 29.5 77.2281 29.5C77.7816 29.5 78.2246 29.8335 78.2246 30.25ZM67.2632 30.75C67.2632 31.1625 66.9268 31.5 66.5158 31.5C66.1047 31.5 65.7684 31.1625 65.7684 30.75C65.7684 30.3375 66.1047 30 66.5158 30C66.9268 30 67.2632 30.3375 67.2632 30.75ZM96.1614 31.5C96.1614 32.1665 96.4937 32.5 97.1579 32.5C97.8221 32.5 98.1544 32.1665 98.1544 31.5C98.1544 30.8335 97.8221 30.5 97.1579 30.5C96.4937 30.5 96.1614 30.8335 96.1614 31.5ZM86.1965 32.75C86.1965 34.4165 86.2797 34.5 87.9404 34.5C89.601 34.5 89.6842 34.4165 89.6842 32.75C89.6842 31.0835 89.601 31 87.9404 31C86.2797 31 86.1965 31.0835 86.1965 32.75ZM90.7724 32.375C90.8974 33.466 91.1869 33.75 92.1754 33.75C93.164 33.75 93.4534 33.466 93.5785 32.375C93.721 31.134 93.5845 31 92.1754 31C90.7664 31 90.6299 31.134 90.7724 32.375ZM106.5 31.54C106.02 31.8205 105.628 32.376 105.628 32.775C105.628 33.6275 106.954 33.759 107.228 32.9335C107.448 32.2725 109.614 32.817 109.614 33.5335C109.614 33.79 109.044 34 108.346 34C106.683 34 104.612 36.0675 104.955 37.384C105.291 38.6735 107.397 39.6555 108.527 39.049C108.994 38.798 109.99 38.7105 110.741 38.8545C112.073 39.1105 112.638 38.3895 111.607 37.75C111.333 37.58 111.109 36.442 111.109 35.2205C111.109 31.855 108.933 30.1175 106.5 31.54ZM114.212 31.603C112.343 32.527 111.923 35.6335 113.367 37.845C114.037 38.871 114.499 39.0625 115.903 38.898C117.253 38.74 117.59 38.8635 117.475 39.4735C117.375 40.0015 116.642 40.2995 115.183 40.4055C112.47 40.6015 112.634 41.6905 115.408 41.899C118.39 42.123 119.313 40.84 119.322 36.4575C119.326 34.558 119.498 33.003 119.704 33.002C119.909 33.001 120.077 32.659 120.077 32.242C120.077 31.736 119.621 31.501 118.707 31.535C117.954 31.563 116.888 31.464 116.34 31.3145C115.792 31.165 114.835 31.295 114.212 31.603ZM122.818 31.5775C121.263 32.431 120.574 33.558 120.591 35.2205C120.621 38.119 123.49 40.0885 125.922 38.88C126.62 38.5335 127.104 38.025 126.997 37.75C126.815 37.2815 126.406 37.2735 124.561 37.7015C123.784 37.8825 122.07 36.6585 122.07 35.9225C122.07 35.69 123.303 35.5 124.811 35.5C127.379 35.5 127.551 35.424 127.551 34.2865C127.551 33.5705 127.012 32.6475 126.238 32.0365C124.757 30.867 124.239 30.7975 122.818 31.5775ZM131.786 31.48C131.238 31.705 130.173 31.7735 129.419 31.632C128.081 31.381 127.514 32.1085 128.547 32.75C128.821 32.92 129.046 34.3955 129.046 36.0295C129.046 38.3365 129.213 39 129.793 39C130.357 39 130.54 38.39 130.54 36.5115C130.54 34.3955 130.731 33.898 131.811 33.187C133.482 32.0885 133.937 32.6415 134.124 36C134.259 38.4155 134.413 38.7695 135.398 38.91C136.533 39.0715 136.937 38.318 136.021 37.75C135.747 37.58 135.523 36.342 135.523 34.999C135.523 33.042 135.303 32.402 134.415 31.7785C133.179 30.9095 133.175 30.909 131.786 31.48ZM139.26 31.5655C137.106 32.7735 136.352 35.3175 137.505 37.4805C138.533 39.4075 142.666 39.75 143.745 37.9975C144.303 37.0925 143.597 36.793 142.301 37.385C139.855 38.5035 137.907 36.6995 138.736 34.0825C139.182 32.6695 140.449 32.348 141.874 33.285C143.313 34.2315 144.32 33.6205 143.372 32.3755C142.537 31.2785 140.49 30.875 139.26 31.5655ZM149.847 31.54C149.368 31.8205 148.975 32.376 148.975 32.775C148.975 33.637 149.56 33.713 150.32 32.9505C150.925 32.344 152.961 32.794 152.961 33.5335C152.961 33.79 152.413 34 151.744 34C149.877 34 147.769 36.0465 148.207 37.433C148.592 38.6515 150.706 39.722 151.614 39.1585C151.924 38.967 152.914 38.8595 153.814 38.9205C155.386 39.027 155.999 38.3975 154.954 37.75C154.68 37.58 154.456 36.342 154.456 34.999C154.456 33.042 154.236 32.402 153.349 31.7785C152.076 30.8835 151.086 30.816 149.847 31.54ZM163.261 31.331C163.079 31.513 162.188 31.634 161.281 31.6L159.632 31.5375L159.817 36.144C159.919 38.677 160.093 41.0315 160.203 41.375C160.618 42.67 161.432 41.932 161.432 40.2605C161.432 38.5945 161.483 38.545 162.657 39.0815C163.641 39.5315 164.136 39.475 165.17 38.795C167.714 37.1215 167.894 33.848 165.544 31.992C164.198 30.9295 163.781 30.809 163.261 31.331ZM171.73 31.332C171.548 31.5145 170.502 31.6285 169.405 31.5855C167.521 31.5115 166.808 32.067 167.909 32.75C168.183 32.92 168.407 34.3955 168.407 36.0295C168.407 38.3365 168.574 39 169.154 39C169.696 39 169.902 38.441 169.902 36.967C169.902 34.6135 170.618 33 171.663 33C172.065 33 172.393 32.55 172.393 32C172.393 30.9355 172.259 30.8005 171.73 31.332ZM173.818 31.957C172.349 33.152 172.953 33.9035 174.651 32.9915C175.746 32.403 176.019 32.425 176.75 33.1575C177.536 33.9475 177.521 34 176.509 34C173.199 34 171.268 36.877 173.41 38.6175C174.157 39.224 174.948 39.449 175.603 39.2415C176.167 39.063 177.412 38.9465 178.371 38.9825C179.764 39.035 179.989 38.9225 179.492 38.424C179.15 38.081 178.87 36.9555 178.87 35.9235C178.87 33.473 178.014 31.655 176.692 31.299C175.171 30.8895 175.114 30.9025 173.818 31.957ZM181.323 32.4615C180.522 33.2655 179.867 34.453 179.867 35.1005C179.867 36.63 181.153 38.445 182.638 39.012C184.118 39.5765 186.842 38.6925 186.842 37.6475C186.842 37.125 186.574 37.004 185.97 37.253C183.98 38.0755 183.396 38.042 182.404 37.046C181.098 35.7355 181.085 34.777 182.358 33.5C183.55 32.3035 184.038 32.2575 185.027 33.25C185.974 34.2005 186.842 34.214 186.842 33.2785C186.842 32.38 184.941 31 183.704 31C183.195 31 182.124 31.6575 181.323 32.4615ZM144.491 31.9355C144.491 32.2135 144.715 32.58 144.989 32.75C145.264 32.92 145.488 34.613 145.488 36.512C145.488 39.453 145.34 40.044 144.491 40.5C143.242 41.171 143.199 42 144.414 42C146.39 42 147.035 40.4145 146.879 35.937C146.743 32.027 146.659 31.7395 145.612 31.59C144.995 31.5025 144.491 31.658 144.491 31.9355ZM186.856 31.625C186.864 31.694 187.626 33.325 188.551 35.2495C190.409 39.118 190.272 40.5 188.028 40.5C187.234 40.5 186.837 40.734 186.967 41.125C187.081 41.469 187.828 41.75 188.627 41.75C190.183 41.75 190.591 41.1595 193.3 35C193.966 33.4875 194.597 32.081 194.703 31.875C194.81 31.6685 194.439 31.5 193.879 31.5C193.109 31.5 192.648 32.106 191.977 34C191.491 35.375 190.974 36.5 190.828 36.5C190.683 36.5 190.165 35.375 189.679 34C189.025 32.153 188.539 31.5 187.818 31.5C187.281 31.5 186.849 31.556 186.856 31.625ZM83.7053 33.25C83.7053 34.25 83.4561 34.5 82.4596 34.5C81.4632 34.5 81.214 34.25 81.214 33.25C81.214 32.25 81.4632 32 82.4596 32C83.4561 32 83.7053 32.25 83.7053 33.25ZM116.998 32.9335C117.41 33.1955 117.595 34.0795 117.496 35.301C117.349 37.098 117.22 37.25 115.842 37.25C114.501 37.25 114.33 37.072 114.183 35.522C114.068 34.3085 114.282 33.6015 114.901 33.147C115.93 32.3925 116.117 32.3735 116.998 32.9335ZM125.558 33.25C126.09 33.893 125.921 34 124.373 34C122.614 34 121.943 33.3365 123.191 32.831C124.31 32.378 124.927 32.4875 125.558 33.25ZM165.321 35.357C165.109 37.845 163.704 38.668 162.397 37.0695C161.17 35.569 161.179 34.753 162.44 33.4885C163.252 32.673 163.643 32.5825 164.46 33.021C165.244 33.442 165.439 33.971 165.321 35.357ZM79.2211 34.75C79.2211 35.1625 78.8847 35.5 78.4737 35.5C78.0626 35.5 77.7263 35.1625 77.7263 34.75C77.7263 34.3375 78.0626 34 78.4737 34C78.8847 34 79.2211 34.3375 79.2211 34.75ZM90.3499 35.2835C89.9343 36.3695 90.9886 37.391 91.7435 36.6335C92.3812 35.9935 91.9861 34.5 91.1789 34.5C90.8875 34.5 90.5148 34.8525 90.3499 35.2835ZM87.0271 35.3335C86.8442 35.5165 86.6947 36.1915 86.6947 36.8335C86.6947 37.722 86.9718 38 87.8571 38C89.3708 38 89.5905 37.7325 89.3055 36.238C89.0818 35.0625 87.8028 34.5545 87.0271 35.3335ZM94.3294 36.3005C93.9472 37.2995 95.1589 38.1275 95.9905 37.435C96.7444 36.807 96.3084 35.5 95.3453 35.5C94.9547 35.5 94.4978 35.86 94.3294 36.3005ZM109.614 36.2325C109.614 37.3615 107.72 38.2045 106.836 37.4685C106.288 37.0125 106.25 36.7025 106.679 36.1835C107.443 35.2605 109.614 35.2965 109.614 36.2325ZM152.961 35.9645C152.961 36.551 151.538 38 150.962 38C150.291 38 149.853 37.031 150.161 36.226C150.463 35.438 152.961 35.2045 152.961 35.9645ZM177.375 36.2325C177.375 37.141 175.552 38.1725 174.596 37.804C173.721 37.4675 173.666 36.1735 174.511 35.831C175.827 35.298 177.375 35.515 177.375 36.2325ZM84.8159 36.594C85.1238 37.521 86.1965 37.6745 86.1965 36.7915C86.1965 36.3565 85.8412 36 85.4078 36C84.9738 36 84.7072 36.267 84.8159 36.594ZM76.7298 37.5C76.7298 37.775 76.4922 38 76.2022 38C75.9122 38 75.8131 37.775 75.9825 37.5C76.1519 37.225 76.389 37 76.5101 37C76.6312 37 76.7298 37.225 76.7298 37.5ZM80.5578 38.094C80.3989 38.4925 80.2808 38.374 80.2569 37.7915C80.2355 37.2645 80.3531 36.9695 80.5185 37.1355C80.6839 37.3015 80.7018 37.733 80.5578 38.094ZM75.2351 40.5C75.2351 40.775 75.1364 41 75.0154 41C74.8943 41 74.6571 40.775 74.4877 40.5C74.3183 40.225 74.4175 40 74.7074 40C74.9974 40 75.2351 40.225 75.2351 40.5Z" fill="#828282"/>
</svg>
