<svg width="101" height="78" viewBox="0 0 101 78" fill="none" xmlns="http://www.w3.org/2000/svg">
<path fill-rule="evenodd" clip-rule="evenodd" d="M33.1565 0.625912C22.5873 2.23366 13.4466 4.7991 5.65417 8.34425C3.17079 9.47402 1.13914 10.6148 1.13914 10.879C1.13914 11.1432 1.46688 11.2544 1.86681 11.1264C10.7804 8.27415 27.6902 5.66352 40.1421 5.21683C45.4249 5.02737 50.4889 4.28578 50.4889 4.28578C50.4889 4.28578 51.332 4.16122 51.4275 4.28578C51.8443 4.83212 54.7734 9.81875 57.6096 15.1617C62.7486 24.8435 72.7555 43.2796 75.445 48.0205C76.8397 50.4794 77.9807 52.6068 77.9807 52.7488C77.9807 52.8907 78.9872 54.7899 80.2179 56.9689C81.4479 59.1485 84.1013 64.0603 86.1143 67.8842C88.1273 71.708 90.0676 75.128 90.4262 75.4838C91.1201 76.172 98.1738 78.0393 99.9306 77.9994C101.162 77.9716 98.6634 75.6413 93.997 72.4664C90.6427 70.1843 90.8855 70.0829 95.9331 71.6576C100.02 72.9328 100.684 73.0278 100.684 72.3395C100.684 71.861 95.5076 68.3187 90.7877 65.5673C89.3469 64.7272 88.692 64.1704 89.3323 64.3298C89.9727 64.4891 92.5399 65.1756 95.0378 65.8558C97.5352 66.536 99.8916 66.9885 100.275 66.861C101.102 66.5864 97.5026 64.2191 91.0787 60.8124C85.914 58.0743 86.5602 58.0158 95.4185 60.4202C103.659 62.6577 102.55 61.3309 91.6609 55.9278C84.0518 52.152 84.5169 51.9423 94.5715 54.6143C97.4531 55.3797 100.023 56.0066 100.282 56.0066C102.189 56.0083 94.7409 51.6862 87.7105 48.7117C85.538 47.7929 84.018 46.9551 84.333 46.8508C84.6479 46.7465 88.3404 47.4875 92.5393 48.4985C96.7377 49.5089 100.33 50.1793 100.523 49.9881C100.906 49.6063 87.7594 43.2726 84.1997 42.1243C82.9778 41.7298 82.0952 41.29 82.2396 41.1469C82.827 40.5618 90.7341 42.2164 99.738 44.8091C100.508 45.0304 100.697 44.9099 100.382 44.4018C99.7455 43.3769 87.8031 37.8503 82.7967 36.264C80.4827 35.5305 78.67 34.8503 78.7678 34.753C79.0757 34.4465 90.8831 36.7814 95.2916 38.0212C97.6091 38.6724 99.7857 39.2055 100.129 39.2055C102.961 39.2055 92.5946 34.2043 83.2199 31.048C79.5379 29.8081 76.8398 28.7902 77.2234 28.7855C78.5652 28.7687 90.535 31.1644 94.9831 32.3399C97.4502 32.9917 99.8078 33.41 100.222 33.2693C101.677 32.7745 87.4427 26.5399 80.729 24.7311C79.1991 24.3192 78.0541 23.8754 78.1851 23.7456C78.8015 23.132 91.187 25.577 99.6652 27.986C100.226 28.1453 100.684 28.0451 100.684 27.7635C100.684 26.9483 91.7272 22.9774 83.8021 20.2798C79.7999 18.9171 77.0499 17.7949 77.6908 17.7856C79.3493 17.7619 89.6211 19.759 95.3667 21.2224C98.0451 21.9044 100.364 22.336 100.519 22.1813C101.303 21.4009 88.3375 15.9218 80.3954 13.6779C77.7211 12.9224 75.789 12.2196 76.1016 12.1159C76.9946 11.8193 90.0431 14.1883 94.7433 15.5C100.785 17.186 101.805 16.6339 96.9001 14.3314C91.0659 11.5928 86.0939 9.76023 79.4361 7.89467C76.2343 6.99722 74.0077 6.2452 74.4879 6.22261C76.2669 6.13918 89.511 8.54356 94.8434 9.91782C97.874 10.6988 100.451 11.2417 100.569 11.1235C100.994 10.7011 97.8175 8.99489 92.8723 6.98795C87.6453 4.86689 79.8628 2.70411 71.8683 1.14966C65.5277 -0.0832343 40.0798 -0.427379 33.1565 0.625912ZM38.9778 11.2C29.7714 12.0962 19.3436 14.3204 11.9086 16.9734C6.57394 18.8772 0.102944 21.9635 0.895809 22.2265C1.23927 22.3406 4.64358 21.6674 8.46063 20.7306C19.0176 18.1402 34.0652 16.0846 42.7995 16.04C44.2647 16.0325 44.759 15.6646 45.5646 13.9832C46.1043 12.857 46.5455 11.6837 46.5455 11.3761C46.5455 10.8431 43.3974 10.7701 38.9778 11.2ZM34.0297 22.792C25.7867 23.8058 10.4783 28.1697 4.34087 31.2554C0.011549 33.4321 0.89581 33.8637 6.49419 32.3075C12.0105 30.7739 26.2262 28.3701 32.7298 27.8713C37.3694 27.515 37.93 27.3406 38.8928 25.9553C41.0345 22.8754 40.9431 22.3945 38.2321 22.4907C36.881 22.5382 34.9902 22.6738 34.0297 22.792ZM26.1709 35.4326C22.4889 36.1759 17.1187 37.5629 14.2371 38.5149C2.70334 42.3259 -4.37541 46.8189 6.37834 43.5032C9.67787 42.4858 27.8748 39.2055 30.2184 39.2055C31.6651 39.2055 32.168 38.8155 33.1198 36.9598C34.1502 34.9488 34.181 33.9066 33.2048 34.0363C33.0185 34.0612 29.8529 34.6893 26.1709 35.4326ZM20.3495 47.8502C12.2631 50.006 1.13914 54.4869 1.13914 55.5894C1.13914 55.8936 1.59728 56.0123 2.15787 55.8542C8.41464 54.0836 13.4809 52.9434 18.8046 52.1062C24.8174 51.1613 25.2505 51.0014 26.2594 49.3548C26.8485 48.3931 27.3316 47.4105 27.3328 47.1718C27.3363 46.4788 24.4402 46.7598 20.3495 47.8502ZM13.3639 61.1878C7.30102 63.2469 1.95762 65.587 1.44942 66.4051C0.90454 67.2822 2.09733 67.1565 6.24911 65.8998C8.25921 65.2915 11.0098 64.6212 12.3615 64.4097C17.4267 63.6171 18.9821 62.9955 19.6725 61.4868C20.0451 60.6734 20.3495 59.8901 20.3495 59.7458C20.3495 59.1293 17.9919 59.616 13.3639 61.1878ZM9.58007 73.6825C5.15411 75.2914 0.928993 77.4281 1.34813 77.8453C1.5251 78.0214 4.00673 77.5909 6.86326 76.8881C11.2409 75.8117 12.1618 75.3795 12.7317 74.135C13.1031 73.3233 13.3325 72.6037 13.24 72.5359C13.148 72.4676 11.5011 72.9838 9.58007 73.6825Z" fill="#3B3B3B"/>
</svg>
