<svg width="117" height="50" viewBox="0 0 117 50" fill="none" xmlns="http://www.w3.org/2000/svg">
<path fill-rule="evenodd" clip-rule="evenodd" d="M46.0856 0.285357C45.1398 0.443455 44.201 1.00164 44.0004 1.52498C43.7997 2.04896 43.439 7.69469 43.1997 14.0709L42.7648 25.6644H29.2752H15.7856L17.2786 22.9986C20.1226 17.9221 26.1635 13.938 36.1916 10.5256C41.1357 8.84398 42.0306 8.32128 42.2171 7.00874C42.4693 5.23223 41.2138 2.57166 39.766 1.81407C38.5234 1.1649 28.7597 3.56413 22.6427 6.02208C11.0067 10.6973 3.15344 17.8175 1.23013 25.4359C-0.16864 30.9784 2.2063 37.6786 7.28717 42.5203C10.7538 45.8236 16.5592 49.5405 18.2522 49.5405C19.9116 49.5405 24.9008 45.0602 24.9008 43.5695C24.9008 43.0152 23.0137 40.6741 20.7071 38.3671C18.4006 36.0602 16.5134 33.7106 16.5134 33.1453C16.5134 32.2387 18.0715 32.1174 29.7397 32.1174H42.9661V40.1688C42.9661 48.0498 43.0003 48.2428 44.583 49.2798C45.9185 50.1548 46.5198 50.2064 48.0418 49.576C51.18 48.2757 51.4736 46.0985 51.2407 25.8593L51.031 7.66307L55.0105 7.23718C57.199 7.00293 60.7224 7.01261 62.8405 7.25847L66.6904 7.70566L66.6717 26.5259C66.6594 39.0053 66.8975 45.9468 67.3775 47.1284C68.3801 49.594 70.8667 50.6646 72.9732 49.5373C74.5527 48.6919 74.5804 48.5396 74.5804 40.7199C74.5804 35.2858 74.8088 32.7627 75.3017 32.7627C75.6985 32.7627 79.5664 33.941 83.8969 35.3813L91.7708 38.0006L96.0942 36.3725L100.418 34.745L98.7137 36.9804C97.7762 38.2097 96.8259 39.2247 96.6013 39.2363C96.3775 39.2473 95.3884 39.9655 94.4038 40.8322C92.6863 42.3435 92.6508 42.4957 93.5238 44.5852C94.4503 46.8038 98.0408 49.5405 100.025 49.5405C101.514 49.5405 106.484 46.1346 110.28 42.5132C121.009 32.2774 118.378 19.3314 103.767 10.4592C98.0233 6.97131 92.4883 4.73857 84.5808 2.71943L78.7741 1.23653L76.9999 3.13565C76.0237 4.18039 75.2256 5.59037 75.2256 6.26923C75.2256 7.7276 76.8637 9.53187 78.187 9.53187C79.9026 9.53187 88.161 12.6816 91.5527 14.6297C95.2645 16.7612 99.7634 21.197 100.864 23.8098L101.578 25.5043L94.4877 27.7822L87.3977 30.0608L81.1504 27.9675L74.903 25.8741L74.4946 13.7773C74.2301 5.94851 73.821 1.41528 73.3345 0.928075C72.5874 0.179526 49.9193 -0.354781 46.0856 0.285357Z" fill="#3B3B3B"/>
</svg>
