<svg width="85" height="100" viewBox="0 0 85 100" fill="none" xmlns="http://www.w3.org/2000/svg">
<path fill-rule="evenodd" clip-rule="evenodd" d="M34.8599 0.833052C27.9345 2.35107 21.7558 5.85509 15.9924 11.5344C5.88202 21.4971 0.748806 34.4959 0.741645 50.1543C0.734996 65.2398 5.45391 77.7359 15.013 87.9436C18.2849 91.4374 22.0059 94.2008 26.4067 96.4037C32.4396 99.4239 35.197 100.024 42.9106 99.9993C49.0882 99.9793 50.2411 99.8289 53.8558 98.5707C56.0781 97.7974 59.5306 96.217 61.528 95.0591C66.2407 92.3268 73.1856 85.3653 76.4135 80.1372C90.0174 58.106 86.615 27.563 68.6922 10.826C59.0616 1.83194 46.8122 -1.78614 34.8599 0.833052ZM52.9095 4.87667C74.9635 12.2494 87.0753 40.2028 79.3975 66.0096C74.8566 81.2736 63.7948 92.8685 50.568 96.2293C49.0289 96.62 45.3529 96.9407 42.3991 96.9407C37.8674 96.9417 36.3253 96.7121 32.5245 95.4713C19.6357 91.263 9.37338 79.2728 5.20993 63.5576C4.06371 59.2317 3.89287 57.5408 3.87957 50.41C3.86679 43.6679 4.06217 41.4242 4.98795 37.6716C7.21442 28.6499 11.2075 21.1028 16.9586 15.0486C22.7854 8.91516 29.7855 4.91349 36.9375 3.62768C41.4554 2.81548 48.3589 3.35507 52.9095 4.87667ZM34.7269 5.45257C24.4226 8.2027 15.6927 15.5125 10.3554 25.8599C5.85184 34.591 4.20794 42.4824 4.70868 52.9673C5.61144 71.8541 15.9239 87.4547 31.4693 93.449C36.1059 95.2365 45.0276 95.7178 50.0846 94.452C56.3078 92.8946 61.5704 89.8544 66.4729 84.9848C72.5989 78.901 76.0008 73.1614 78.4109 64.846C85.9588 38.7993 72.7028 11.0546 50.0386 5.4628C45.9028 4.44192 38.5308 4.43732 34.7269 5.45257ZM51.5157 9.53045C64.1186 13.7546 73.2511 25.0119 76.4074 40.2125C78.0319 48.0373 77.2498 59.358 74.5942 66.4592C68.7833 81.9989 56.6771 91.6655 42.9479 91.7279C34.3408 91.7668 28.2444 89.3036 20.8448 82.7968C18.1294 80.4093 14.57 75.3852 12.4024 70.8807C1.80859 48.8654 9.80609 20.7396 29.3564 11.2587C34.5433 8.7428 36.3693 8.32903 42.5648 8.26561C46.6955 8.22367 48.2878 8.44871 51.5157 9.53045ZM33.8554 10.9881C19.7094 15.5693 9.96362 29.6135 8.82661 47.0543C7.96016 60.3452 12.2602 72.2643 21.1282 81.1519C28.8853 88.9266 38.5262 91.9586 48.6627 89.811C66.1865 86.0972 78.6134 65.9339 76.2115 45.1108C75.0336 34.8959 71.3801 26.6465 65.0735 19.9617C60.8814 15.5181 57.1205 13.0176 51.8901 11.1968C46.3656 9.2737 39.3978 9.19289 33.8554 10.9881ZM48.0254 13.3546C59.2217 15.8439 68.1961 25.2635 72.1222 38.6464C73.1488 42.1458 73.3176 43.8111 73.2889 50.1543C73.2592 56.6724 73.0894 58.1157 71.8864 62.0749C69.5577 69.7407 66.4796 74.7847 61.1668 79.6395C55.4623 84.8534 49.5834 87.1948 42.3991 87.114C31.4903 86.9923 22.0918 80.6676 16.3581 69.5898C13.1568 63.4052 12.1748 59.5299 11.8571 51.8303C11.6188 46.0554 11.739 44.3702 12.6806 40.2964C16.4211 24.1097 28.4567 13.0038 42.3991 12.8734C44.2277 12.8565 46.7595 13.0728 48.0254 13.3546ZM40.6534 16.6566C34.8998 18.6718 33.5858 27.1411 38.296 31.8511C40.0253 33.5799 40.5092 33.7875 42.8114 33.7875C45.6731 33.7875 47.9267 32.359 49.3225 29.6605C50.5281 27.3288 50.3076 22.0111 48.9205 19.973C46.6403 16.6229 43.8947 15.5212 40.6534 16.6566ZM32.1695 38.3907V40.948H34.4712H36.7728V44.5282C36.7728 48.0916 36.7662 48.1084 35.3663 48.1141C34.5924 48.1171 33.1101 48.2603 32.0713 48.4317C28.8592 48.9631 26.7182 51.9403 29.1006 52.5633C29.6633 52.7106 30.1236 53.1494 30.1236 53.5386C30.1236 54.4557 31.5041 54.4352 34.2154 53.4788C35.4113 53.0568 36.4762 52.7116 36.5815 52.7116C36.6869 52.7116 36.7728 53.6322 36.7728 54.7574C36.7728 56.1542 36.5493 56.8033 36.068 56.8033C34.0144 56.8033 33.7433 60.5139 35.7509 61.1512C36.6659 61.4412 36.7728 61.9261 36.7728 65.7881V70.1013H33.4211C31.5777 70.1013 28.4546 69.7341 26.4803 69.285C22.4816 68.3756 21.5824 68.6416 23.482 70.1724C26.0144 72.2131 30.3129 73.8866 33.5761 74.1014C36.5442 74.2973 36.7728 74.3991 36.7728 75.531C36.7728 76.6352 36.5555 76.7503 34.4712 76.7503H32.1695V79.3076V81.8649H42.6549H53.1402V79.3076V76.7503H51.0943H49.0484V74.7044C49.0484 73.1624 49.2519 72.6586 49.8744 72.6586C51.4308 72.6586 55.7232 69.9253 56.7333 68.2902C58.8769 64.822 57.5896 59.6388 54.1637 57.9438L52.2037 56.9746L54.6184 56.3558C59.4022 55.1298 61.9376 52.7055 61.9376 49.3585C61.9376 45.6841 58.5256 43.7856 52.4804 44.096L49.0463 44.2725L49.0473 42.6102C49.0484 41.0119 49.1271 40.948 51.0943 40.948H53.1402V38.3907V35.8334H42.6549H32.1695V38.3907ZM46.491 48.066V55.184L43.9085 55.7379C38.9881 56.7931 39.3302 57.3255 39.3302 48.6199V40.948H42.9106H46.491V48.066ZM52.331 48.4189C53.6634 48.9299 53.2532 50.4607 51.3321 52.1469C50.3378 53.02 49.4171 53.7345 49.2862 53.7345C49.1553 53.7345 49.0484 52.6006 49.0484 51.2145C49.0484 49.2449 49.2437 48.6439 49.9434 48.4608C51.3541 48.0926 51.4748 48.0905 52.331 48.4189ZM46.491 63.9438V68.0161L43.8405 68.8027C39.2776 70.1581 39.3302 70.1985 39.3302 65.3166V61.0428L40.9925 60.5098C41.9066 60.2163 43.5182 59.9529 44.5729 59.9242L46.491 59.8721V63.9438ZM50.3895 62.1966C51.1173 63.3081 51.1439 63.6824 50.5705 64.754C49.5389 66.6811 49.0484 66.2612 49.0484 63.4523C49.0484 62.0458 49.1583 60.895 49.2923 60.895C49.4263 60.895 49.9199 61.4806 50.3895 62.1966ZM46.491 75.2159V76.7503H42.9106C39.453 76.7503 39.3302 76.7073 39.3302 75.4982C39.3302 74.3531 39.5589 74.2303 42.0155 74.0585C43.4927 73.9551 45.1033 73.8283 45.5959 73.7761C46.2705 73.705 46.491 74.0595 46.491 75.2159Z" fill="#3B3B3B"/>
</svg>
