<svg width="207" height="50" viewBox="0 0 207 50" fill="none" xmlns="http://www.w3.org/2000/svg">
<path fill-rule="evenodd" clip-rule="evenodd" d="M26.4793 0.0164839L34.1252 7.24883L33.0142 8.40276L40.4377 15.1472L39.4148 16.078L64.4887 39.7719L63.3326 41.0148L23.3224 3.47715L26.4793 0.0164839ZM22.7014 4.12336L30.3485 11.3557L29.2375 12.5096L36.661 19.254L35.6381 20.186L60.712 43.8787L59.5559 45.1217L19.5457 7.58402L22.7014 4.12336ZM18.7562 8.28626L26.4033 15.5186L25.2923 16.6725L32.7158 23.4169L31.6929 24.3489L56.7657 48.0427L55.6107 49.2857L15.6005 11.748L18.7562 8.28626ZM14.9234 12.5151L22.5253 19.6584L21.4594 20.7233L46.0874 43.7963L43.9535 45.6602L11.7225 15.7977L14.9234 12.5151ZM11.0905 16.5659L18.6924 23.7093L17.6254 24.7742L42.2534 47.8471L40.1206 49.7099L7.88962 19.8486L11.0905 16.5659ZM7.11226 20.8146L31.0289 43.0886L28.1397 46.0613L4.08978 23.8752L7.11226 20.8146ZM3.33553 24.7511L27.2533 47.0273L24.363 50L0.311951 27.8139L3.33553 24.7511ZM34.5601 6.55099L51.0984 21.9476L52.3416 20.7047L43.1849 12.1865L44.2067 11.1667L36.694 4.11127L34.5601 6.55099ZM38.3038 2.53313L54.9302 17.8407L56.1756 16.5989L47.0178 8.07966L48.0396 7.05871L40.5269 0.00440186L38.3038 2.53313ZM49.5536 5.25749L58.7565 13.6877L59.9567 12.4008L50.8881 4.01565L49.5536 5.25749ZM53.3303 1.19789L62.5321 9.80615L63.7334 8.51925L54.4865 0L53.3303 1.19789ZM74.8632 11.3337H93.1764V37.0014H90.8873V13.7152H74.8632V11.3337Z" fill="#3B3B3B"/>
<path fill-rule="evenodd" clip-rule="evenodd" d="M74.8632 14.99H89.621V37.0123H87.2834V17.4209H74.8632V14.99ZM93.1258 23.9917L105.741 11.3041L107.494 12.8602L96.5843 23.8961L107.202 34.6891H116.994V14.9515H135.405V17.3814C135.405 20.0552 133.165 23.2642 129.221 23.2642H123.618V26.715C123.618 30.8966 127.126 34.6891 130.777 34.6891H139.059V36.9728H129.267C125.273 36.9728 121.376 30.8966 121.376 26.715V20.8805H130.194C131.897 20.8805 133.163 18.6924 133.163 17.3803H119.38V36.9717H105.887L93.1258 23.9917Z" fill="#3B3B3B"/>
<path fill-rule="evenodd" clip-rule="evenodd" d="M108.483 13.6965L98.3516 23.906L107.558 33.4813H115.838V13.6965H136.587V17.3913C136.587 20.8915 133.081 24.3434 130.012 24.3434H124.898V26.7248C124.898 29.3997 127.138 33.4813 130.986 33.4813H139.07V31.0515H131.229C128.988 31.0515 127.138 29.203 127.138 26.7237H129.476C134.054 26.7237 139.07 22.4465 139.07 17.3902V11.3139H113.499V31.0504H108.482L101.468 23.7587L110.041 15.3483L108.483 13.6965ZM154.537 31.0581C158.141 31.0581 162.037 26.7303 162.037 24.3489V18.6606H164.375V24.3478C164.375 29.0162 158.48 33.4868 153.708 33.4868H142.164V31.0581H154.537Z" fill="#3B3B3B"/>
<path fill-rule="evenodd" clip-rule="evenodd" d="M142.165 34.7133H153.221C158.873 34.7133 165.543 29.9009 165.543 25.3313L165.446 18.6727H167.784V25.3313C167.784 30.9229 160.967 36.9991 153.709 36.9991H142.165V34.7133Z" fill="#3B3B3B"/>
<path fill-rule="evenodd" clip-rule="evenodd" d="M142.165 29.4481V24.3445C142.165 17.2956 146.939 11.3161 153.952 11.3161H178.111V36.9837H175.724V13.6976H155.169C148.059 13.6976 144.501 18.6562 144.501 24.3445V29.4481H142.165Z" fill="#3B3B3B"/>
<path fill-rule="evenodd" clip-rule="evenodd" d="M145.8 24.3291C145.8 21.3146 148.088 14.9471 154.225 14.9471H174.584V36.9695H172.343V17.2803H152.812C149.647 18.6408 148.284 21.364 148.284 24.3291V29.4327H145.8V24.3291ZM206.312 36.9882V34.7023H192.916L181.763 23.2785L192.722 12.6327L191.017 10.882L178.11 23.2785L191.359 36.9882H206.312Z" fill="#3B3B3B"/>
<path fill-rule="evenodd" clip-rule="evenodd" d="M206.312 33.4769V31.0471H194.622L186.828 23.2675L195.303 14.9548L193.404 13.2536L183.37 23.2675L193.404 33.4769H206.312Z" fill="#3B3B3B"/>
</svg>
