<svg width="116" height="50" viewBox="0 0 116 50" fill="none" xmlns="http://www.w3.org/2000/svg">
<path fill-rule="evenodd" clip-rule="evenodd" d="M45.2251 0.285357C44.2798 0.443455 43.3416 1.00164 43.141 1.52498C42.9405 2.04896 42.5801 7.69469 42.3408 14.0709L41.9062 25.6644H28.4245H14.9427L16.4348 22.9986C19.2771 17.9221 25.3145 13.938 35.3369 10.5256C40.2781 8.84398 41.1724 8.32128 41.3588 7.00874C41.6109 5.23223 40.3561 2.57166 38.9091 1.81407C37.6672 1.1649 27.9093 3.56413 21.7958 6.02208C10.1666 10.6973 2.31789 17.8175 0.395702 25.4359C-1.00225 30.9784 1.37131 37.6786 6.44921 42.5203C9.9138 45.8236 15.7158 49.5405 17.4078 49.5405C19.0663 49.5405 24.0526 45.0602 24.0526 43.5695C24.0526 43.0152 22.1665 40.6741 19.8613 38.3671C17.5561 36.0602 15.67 33.7106 15.67 33.1453C15.67 32.2387 17.2273 32.1174 28.8887 32.1174H42.1074V40.1688C42.1074 48.0498 42.1416 48.2428 43.7233 49.2798C45.0581 50.1548 45.659 50.2064 47.1802 49.576C50.3165 48.2757 50.6099 46.0985 50.3771 25.8593L50.1676 7.66307L54.1448 7.23718C56.332 7.00293 59.8533 7.01261 61.9703 7.25847L65.8179 7.70566L65.7992 26.5259C65.7869 39.0053 66.0248 45.9468 66.5046 47.1284C67.5066 49.594 69.9917 50.6646 72.0971 49.5373C73.6756 48.6919 73.7033 48.5396 73.7033 40.7199C73.7033 35.2858 73.9315 32.7627 74.4242 32.7627C74.8207 32.7627 78.6864 33.941 83.0144 35.3813L90.8837 38.0006L95.2046 36.3725L99.5261 34.745L97.8225 36.9804C96.8856 38.2097 95.9358 39.2247 95.7114 39.2363C95.4877 39.2473 94.4992 39.9655 93.5152 40.8322C91.7987 42.3435 91.7632 42.4957 92.6357 44.5852C93.5616 46.8038 97.15 49.5405 99.1334 49.5405C100.621 49.5405 105.589 46.1346 109.382 42.5132C120.105 32.2774 117.475 19.3314 102.873 10.4592C97.1326 6.97131 91.6007 4.73857 83.6979 2.71943L77.8946 1.23653L76.1213 3.13565C75.1457 4.18039 74.3481 5.59037 74.3481 6.26923C74.3481 7.7276 75.9853 9.53187 77.3078 9.53187C79.0224 9.53187 87.276 12.6816 90.6658 14.6297C94.3754 16.7612 98.8717 21.197 99.9717 23.8098L100.685 25.5043L93.599 27.7822L86.5132 30.0608L80.2694 27.9675L74.0257 25.8741L73.6175 13.7773C73.3531 5.94851 72.9443 1.41528 72.4582 0.928075C71.7115 0.179526 49.0566 -0.354781 45.2251 0.285357Z" fill="black"/>
</svg>
