<svg version="1.1" id="Layer_1" xmlns="http://www.w3.org/2000/svg" xmlns:xlink="http://www.w3.org/1999/xlink" x="0px" y="0px"
	 width="100%" viewBox="0 0 25 25" enable-background="new 0 0 500 500" xml:space="preserve">
<path fill="#000000" opacity="1.000000" stroke="none" 
	d="
M261.000000,501.000000 
	C174.000015,501.000000 87.500038,501.000000 1.000046,501.000000 
	C1.000031,334.333405 1.000031,167.666794 1.000015,1.000136 
	C167.666565,1.000091 334.333130,1.000091 500.999756,1.000045 
	C500.999847,167.666519 500.999847,334.333038 500.999939,500.999786 
	C421.166656,501.000000 341.333344,501.000000 261.000000,501.000000 
M162.998184,252.011169 
	C178.697784,252.007629 194.397522,252.033066 210.096786,251.958221 
	C211.769974,251.950256 213.440353,251.356186 215.844040,250.566483 
	C215.889374,250.236969 215.969879,249.908005 215.975052,249.577866 
	C216.322464,227.343857 216.607697,205.108582 217.058624,182.876694 
	C217.137680,178.979477 217.400711,174.952744 218.449783,171.231354 
	C223.204361,154.365662 230.039474,138.984833 244.065720,127.063065 
	C260.317535,113.249672 278.867706,106.308655 299.618195,105.136581 
	C321.364624,103.908257 343.046844,105.657364 364.621460,109.467712 
	C364.621460,128.523651 364.621460,147.707886 364.621460,167.002869 
	C357.418762,167.002869 350.591553,166.885239 343.769867,167.029449 
	C332.532501,167.266998 321.188934,166.807312 310.089172,168.213150 
	C293.555298,170.307281 284.124908,181.980164 283.289581,195.583542 
	C282.159302,213.990158 283.118683,232.525085 283.461792,251.819992 
	C285.277832,251.880081 287.093781,251.988678 288.909973,251.992874 
	C310.593323,252.042953 332.276703,252.077499 353.971039,252.926819 
	C353.647797,254.170288 353.211029,255.396591 353.019958,256.660065 
	C351.924164,263.906708 350.986298,271.178406 349.806488,278.410889 
	C347.950562,289.787842 345.578491,301.095551 344.181305,312.525055 
	C343.613312,317.171265 342.024231,318.161469 337.757477,318.088409 
	C323.978394,317.852417 310.192749,318.000366 296.226807,318.000366 
	C296.226807,376.881409 296.226807,435.304382 296.226807,494.118408 
	C312.752808,490.300903 328.506927,485.375427 343.877350,478.769135 
	C369.935791,467.569092 393.586182,452.632172 413.926208,433.114685 
	C426.931763,420.635071 438.800385,406.734741 449.694214,392.347321 
	C464.824615,372.364746 474.604584,349.403778 481.956604,325.505890 
	C489.051788,302.442871 493.171112,278.849457 492.958649,254.640213 
	C492.884735,246.217880 492.819214,237.745377 491.883972,229.392731 
	C490.564240,217.606003 488.973694,205.797089 486.535187,194.200302 
	C482.801910,176.446106 475.644714,159.842773 468.126343,143.370529 
	C457.286041,119.620178 441.518036,99.392563 423.862091,80.542320 
	C417.572449,73.827225 410.648193,67.546661 403.295624,62.023640 
	C391.636749,53.265907 379.995148,44.150913 367.209564,37.312160 
	C351.284424,28.794123 334.538635,21.766886 316.954803,16.773420 
	C301.558594,12.401191 285.953400,9.621469 270.142426,8.175413 
	C260.040771,7.251530 249.766663,7.606805 239.605316,8.107674 
	C228.816910,8.639448 217.967682,9.399422 207.326324,11.157248 
	C182.896973,15.192691 159.861740,23.741373 137.753433,34.721367 
	C120.371307,43.354126 104.546257,54.552971 90.258499,67.524124 
	C79.233101,77.533546 68.961761,88.590981 59.674400,100.234726 
	C50.835041,111.316795 42.475739,123.145309 36.139256,135.767105 
	C28.420710,151.141891 22.300632,167.442398 16.832308,183.791748 
	C10.294915,203.337433 7.741016,223.791672 7.099532,244.377502 
	C6.837527,252.785492 7.386629,261.250519 8.075177,269.647858 
	C8.837097,278.940063 9.671445,288.279816 11.382120,297.429138 
	C14.532496,314.278412 18.873781,330.889069 26.090200,346.504425 
	C31.768717,358.791931 37.641106,371.059998 44.457951,382.734985 
	C54.954079,400.711334 68.462471,416.461731 83.983040,430.300140 
	C93.732414,438.992828 104.139816,446.961609 114.421104,455.039917 
	C126.244904,464.330139 140.160934,469.803314 153.688400,475.946045 
	C172.668625,484.564819 192.673492,489.774048 213.108047,493.445770 
	C213.845459,493.578278 214.916855,491.852112 215.979935,490.066040 
	C215.986618,448.341278 216.008408,406.616486 215.991959,364.891724 
	C215.986069,349.934601 215.887802,334.977539 215.944595,319.150055 
	C214.354065,318.766846 212.765945,318.061890 211.172653,318.050079 
	C194.798660,317.928467 178.423828,317.919159 162.007568,316.962006 
	C162.028351,295.339294 162.049133,273.716583 162.998184,252.011169 
z"/>
<path fill="#FFD012" opacity="1.000000" stroke="none" 
	d="
M215.832611,490.992188 
	C214.916855,491.852112 213.845459,493.578278 213.108047,493.445770 
	C192.673492,489.774048 172.668625,484.564819 153.688400,475.946045 
	C140.160934,469.803314 126.244904,464.330139 114.421104,455.039917 
	C104.139816,446.961609 93.732414,438.992828 83.983040,430.300140 
	C68.462471,416.461731 54.954079,400.711334 44.457951,382.734985 
	C37.641106,371.059998 31.768717,358.791931 26.090200,346.504425 
	C18.873781,330.889069 14.532496,314.278412 11.382120,297.429138 
	C9.671445,288.279816 8.837097,278.940063 8.075177,269.647858 
	C7.386629,261.250519 6.837527,252.785492 7.099532,244.377502 
	C7.741016,223.791672 10.294915,203.337433 16.832308,183.791748 
	C22.300632,167.442398 28.420710,151.141891 36.139256,135.767105 
	C42.475739,123.145309 50.835041,111.316795 59.674400,100.234726 
	C68.961761,88.590981 79.233101,77.533546 90.258499,67.524124 
	C104.546257,54.552971 120.371307,43.354126 137.753433,34.721367 
	C159.861740,23.741373 182.896973,15.192691 207.326324,11.157248 
	C217.967682,9.399422 228.816910,8.639448 239.605316,8.107674 
	C249.766663,7.606805 260.040771,7.251530 270.142426,8.175413 
	C285.953400,9.621469 301.558594,12.401191 316.954803,16.773420 
	C334.538635,21.766886 351.284424,28.794123 367.209564,37.312160 
	C379.995148,44.150913 391.636749,53.265907 403.295624,62.023640 
	C410.648193,67.546661 417.572449,73.827225 423.862091,80.542320 
	C441.518036,99.392563 457.286041,119.620178 468.126343,143.370529 
	C475.644714,159.842773 482.801910,176.446106 486.535187,194.200302 
	C488.973694,205.797089 490.564240,217.606003 491.883972,229.392731 
	C492.819214,237.745377 492.884735,246.217880 492.958649,254.640213 
	C493.171112,278.849457 489.051788,302.442871 481.956604,325.505890 
	C474.604584,349.403778 464.824615,372.364746 449.694214,392.347321 
	C438.800385,406.734741 426.931763,420.635071 413.926208,433.114685 
	C393.586182,452.632172 369.935791,467.569092 343.877350,478.769135 
	C328.506927,485.375427 312.752808,490.300903 296.226807,494.118408 
	C296.226807,435.304382 296.226807,376.881409 296.226807,318.000366 
	C310.192749,318.000366 323.978394,317.852417 337.757477,318.088409 
	C342.024231,318.161469 343.613312,317.171265 344.181305,312.525055 
	C345.578491,301.095551 347.950562,289.787842 349.806488,278.410889 
	C350.986298,271.178406 351.924164,263.906708 353.019958,256.660065 
	C353.211029,255.396591 353.647797,254.170288 353.647430,252.257721 
	C351.364166,251.392426 349.404846,251.029236 347.444824,251.025635 
	C326.023804,250.986374 304.602661,251.003326 283.181549,251.004974 
	C283.118683,232.525085 282.159302,213.990158 283.289581,195.583542 
	C284.124908,181.980164 293.555298,170.307281 310.089172,168.213150 
	C321.188934,166.807312 332.532501,167.266998 343.769867,167.029449 
	C350.591553,166.885239 357.418762,167.002869 364.621460,167.002869 
	C364.621460,147.707886 364.621460,128.523651 364.621460,109.467712 
	C343.046844,105.657364 321.364624,103.908257 299.618195,105.136581 
	C278.867706,106.308655 260.317535,113.249672 244.065720,127.063065 
	C230.039474,138.984833 223.204361,154.365662 218.449783,171.231354 
	C217.400711,174.952744 217.137680,178.979477 217.058624,182.876694 
	C216.607697,205.108582 216.322464,227.343857 215.975052,249.577866 
	C215.969879,249.908005 215.889374,250.236969 215.002029,250.792847 
	C198.193436,251.012894 182.226730,250.975311 166.260483,251.044601 
	C164.507935,251.052200 162.758057,251.673157 161.004456,252.477676 
	C161.000610,272.702393 160.970779,292.459137 161.043716,312.215515 
	C161.050690,314.104401 161.698776,315.990906 162.049240,317.878510 
	C178.423828,317.919159 194.798660,317.928467 211.172653,318.050079 
	C212.765945,318.061890 214.354065,318.766846 215.683044,319.940308 
	C215.281128,322.046143 215.018509,323.361633 215.018005,324.677277 
	C214.997314,378.503235 214.993011,432.329193 215.035110,486.155121 
	C215.036377,487.767670 215.555130,489.379852 215.832611,490.992188 
z"/>
<path fill="#FFC20C" opacity="1.000000" stroke="none" 
	d="
M215.906281,490.529114 
	C215.555130,489.379852 215.036377,487.767670 215.035110,486.155121 
	C214.993011,432.329193 214.997314,378.503235 215.018005,324.677277 
	C215.018509,323.361633 215.281128,322.046143 215.626587,320.375488 
	C215.887802,334.977539 215.986069,349.934601 215.991959,364.891724 
	C216.008408,406.616486 215.986618,448.341278 215.906281,490.529114 
z"/>
<path fill="#FFD500" opacity="1.000000" stroke="none" 
	d="
M283.321655,251.412476 
	C304.602661,251.003326 326.023804,250.986374 347.444824,251.025635 
	C349.404846,251.029236 351.364166,251.392426 353.641968,251.852356 
	C332.276703,252.077499 310.593323,252.042953 288.909973,251.992874 
	C287.093781,251.988678 285.277832,251.880081 283.321655,251.412476 
z"/>
<path fill="#FF8000" opacity="1.000000" stroke="none" 
	d="
M162.028412,317.420258 
	C161.698776,315.990906 161.050690,314.104401 161.043716,312.215515 
	C160.970779,292.459137 161.000610,272.702393 161.271759,252.478500 
	C161.717682,252.038803 161.893799,252.066330 162.069916,252.093857 
	C162.049133,273.716583 162.028351,295.339294 162.028412,317.420258 
z"/>
<path fill="#FFD400" opacity="1.000000" stroke="none" 
	d="
M162.534058,252.052521 
	C161.893799,252.066330 161.717682,252.038803 161.274261,252.010452 
	C162.758057,251.673157 164.507935,251.052200 166.260483,251.044601 
	C182.226730,250.975311 198.193436,251.012894 214.636032,251.026627 
	C213.440353,251.356186 211.769974,251.950256 210.096786,251.958221 
	C194.397522,252.033066 178.697784,252.007629 162.534058,252.052521 
z"/>
</svg>